<?xml version="1.0" encoding="UTF-8"?>
<svg version="1.1" viewBox="0 0 2048 580" width="4004" height="1135" xmlns="http://www.w3.org/2000/svg">
<path transform="translate(262)" d="m0 0h50l27 4 26 6 24 8 18 8 16 8 17 10 16 11 16 13 10 9 20 20 9 11 11 15 10 15 13 24 11 26 7 21 6 26 3 18 1 12v49l-2 20-6 29-7 24-10 24-8 17-12 20-11 16-11 14-12 13-19 19-14 11-12 9-19 12-16 9-18 8-21 8-30 8-24 4-9 1h-51l-32-5-20-5-24-8-21-9-21-11-20-13-12-9-11-9-13-12-12-12-18-22-11-16-9-15-11-21-10-25-7-22-5-23-3-18-1-10v-51l4-27 5-23 7-22 8-20 11-23 14-23 9-12 8-10 12-14 17-17 11-9 14-11 15-10 21-12 21-10 25-9 23-6 16-3z" fill="#010101"/>
<path transform="translate(644,17)" d="m0 0h214v60l-25 1 11 68 11 69 12 75 6 36 3 19v4h24v59h-132v-59h23l-4-34-5-37-62-1-1 15-7 57h23v59h-133v-59h26l1-14 4-26 11-72 7-46 16-108 1-5-24-1zm103 49-2 5-14 119-4 33v5h49l-8-66-9-72-3-23-1-1z" fill="#020202"/>
<path transform="translate(1360,17)" d="m0 0h260l1 1v123l-1 1h-69v-65l-65 1v100l50 1 1 1v57l-1 1-50 1v109l65 1v-68l1-1h68l1 1v126l-1 1h-260v-59h33v-272h-33z" fill="#040404"/>
<path transform="translate(274,24)" d="m0 0h26l19 2 20 3 20 5 21 7 21 9 20 11 7 5-2 2-9 4-1 36 25-14 11-5 6-1 1 2-7 18-4 22v13l4 24-5-2-13-8-18-8-14-4-6-1h-20l-8 2-10 1h-56l-5-1 6-9 13-17 6-9v-5l-7-7-11-9-11-8-8-4-4 2-14 19-12 17-13 19-5 8h-16l-51-3h-27l-9 5-14 12-12 12-7 8-11 14-10 15-8 17-3 9-1 6v16l3 13 7 16 9 16 11 14 16 16 13 9 12 6 12 3 9 1h16l11-3 1-1 1-22-19 2-9 3h-3l-1-17-3-16-5-13-7-11-9-7-11-4-3-2 21-12 19-11 12-8 10-8 3-3 3 9 7 32 8 27 8 20 8 16 9 14 8 10 13 13-16 16-8 7-16 16-8 7-7 8-21 21-7 8-11 12-9 11-12 15-12 17-4-1-12-11-16-16-8-10-13-18-12-20-8-16-8-19-7-22-5-22-3-19-1-15v-29l2-23 5-26 6-21 7-19 12-25 10-17 12-17 14-17 21-21 11-9 13-10 16-10 14-8 19-9 18-7 30-8 26-4z" fill="#DAE75F"/>
<path transform="translate(1227,11)" d="m0 0h10l12 2 12 5 12 9 7 7 6 8 2 1v-26h62v133h-62l-1-1-3-27-5-20-7-14-8-7-4-2h-13l-8 5-5 10-3 12-2 20-2 51v60l2 53 2 22 4 17 6 12 8 5 3 1h10l8-3 6-7 4-8 4-13 4-24 2-22 8 1 36 11 26 8 1 1v10l-4 20-8 24-8 16-7 11-11 13-11 10-14 9-12 5-14 4-16 2h-9l-20-3-17-6-16-9-10-8-14-14-8-11-8-13-9-19-9-27-6-27-4-33-1-15v-45l3-34 5-28 6-22 8-22 10-19 10-14 9-10 7-7 14-9 11-5 11-3z" fill="#030303"/>
<path transform="translate(986,11)" d="m0 0h9l16 3 13 7 12 11 8 9v2h2v-26h62v133h-62l-4-30-5-19-6-12-5-6-8-4h-13l-6 4-4 5-3 8-3 12-2 21-1 21v114l2 35 3 21 4 13 5 8v2l5 2 7 2h9l8-4h2l8-16 4-14 4-27 1-15 5-1 30 9 29 9 8 3-2 18-5 20-7 19-10 19-10 13-13 13-10 7-16 8-12 4-20 3h-9l-21-3-17-6-14-8-13-10-11-11-11-15-9-16-7-15-8-24-5-21-4-25-2-21-1-24v-17l1-24 4-35 4-20 7-24 8-20 9-17 10-14 11-12 13-10 16-8 11-3z" fill="#020202"/>
<path transform="translate(1698,14)" d="m0 0h20l18 4 13 7 10 8 8 6v-21l1-1h58v119h-58l-2-25-4-18-5-9-8-7-10-3h-8l-10 4-5 5-3 5-2 9v10l4 16 6 11 11 12 9 9 11 9 13 12 3 2v2l4 2 20 20 9 11 10 13 9 15 7 15 5 16 3 16v35l-4 20-6 16-6 12-9 12-12 12-12 8-12 5-12 3-7 1h-14l-11-2-10-3-15-8-14-12-2-1 1 21-1 1h-58l-1-2 1-125h58l1 20 3 22 5 13 6 8 7 5 7 2h9l9-3 6-4 5-8 3-10 1-15-2-12-4-11-6-11-11-14-11-12-8-7-9-9-8-7-25-25-9-11-11-15-10-19-6-18-3-15-1-20 2-21 5-17 8-17 9-12 8-7 8-6 14-7z" fill="#030303"/>
<path transform="translate(1911,14)" d="m0 0h20l18 4 15 8 10 9 7 5v-23h58v119h-58l-2-26-4-17-5-9-5-5-8-4-5-1h-7l-9 3-5 3-5 8-2 10v8l2 12 8 16 11 12 8 8 8 7 14 12 13 12 18 18 9 11 11 15 8 14 6 13 5 16 3 15v38l-5 22-5 13-8 14-7 9-5 6-14 11-14 7-14 4-8 1h-14l-11-2-12-4-11-6-10-8-8-6 1 21-1 1h-58v-127h58l2 30 3 14 4 11 6 8 8 5 7 2h8l9-3 6-4 5-8 3-10v-24l-5-15-9-14-9-11-3-3v-2l-3-1-6-7-8-7-8-8-8-7-24-24-9-11-10-14-10-18-6-16-4-19v-34l4-18 6-15 7-12 10-12 12-9 14-7z" fill="#030303"/>
<path transform="translate(496,131)" d="m0 0 5 5 10 15 10 18 8 17 10 28 5 20 4 25 1 11v40l-3 25-4 20-8 26-6 15-11 23-13 21-14 19-14 15-10 11-8 7-16 13-15 10-15 9-16 8-19 8-21 7-9 2-4-1 12-11 30-30 7-8 10-10 9-11 4-6 1-3v-7l-12-24-10-19-20-39-10-19-14-27-12-22-14-26-9-14-2-4 9-11 12-13 9-11 13-17 4-4 19 5 27 5 23 2h22l16-2 12-4 9-6 6-10 4-17 1-11v-15l-2-19z" fill="#DAE75F"/>
<path transform="translate(289,427)" d="m0 0 11 7 14 10 16 10 5 3-6 8-10 13-13 21-8 16-8 18-5 17-2 5-1 1-21-1-27-4-26-7-17-6-24-11 1-3 17-12 19-14 21-16 16-12 16-13 13-11 10-9z" fill="#DAE75F"/>
<path transform="translate(1496,457)" d="m0 0h64l1 1v15l-1 2-6 1 4 28 6 35 2 14 1 2h5l1 1v18h-39l-1-1v-17l5-1 2 1-2-14v-7h-19l-1 17-1 4 5-1 2 1v17l-1 1h-39v-18l5-1h2l8-53 4-27h-7zm31 15-5 40v7h13l-1-14-4-32z" fill="#0C0C0C"/>
<path transform="translate(610,457)" d="m0 0h64v18h-7l9 56 4 24 7 1v17l-1 1h-38l-2-1v-16l4-2 3 1-2-21h-18l-2 21 4-1 2 1v17l-1 1h-38l-1-1v-17l7-1 2-11 6-41 4-25v-2l-6-1zm31 15-1 1-5 43v3h14l-2-17-3-25-1-5z" fill="#0D0D0D"/>
<path transform="translate(1652,457)" d="m0 0h34l5 11 9 25 8 28v-45l-7-2v-16l1-1h31v17l-1 1h-6v100h-21l-4-8-11-29-11-33-2-7 1 57 5 1v18h-30l-1-1v-17l5-1 2 1v-81h-7z" fill="#080808"/>
<path transform="translate(1968,457)" d="m0 0h78l1 1v35l-1 1h-21v-19h-19l1 29 14 1 1 1v16l-1 1h-15l1 32h17l1-19 1-1h20l1 1v37l-2 1h-76l-1-1v-17l1-1h8l1-80h-10z" fill="#0D0D0D"/>
<path transform="translate(1330,457)" d="m0 0h82v43l-1 1h-16l-1-1v-25l-8 1v79h7l2 1v17l-1 1h-46v-18l1-1h7l1-80h-9v25l-1 1h-16l-1-1z" fill="#0E0E0E"/>
<path transform="translate(1843,455)" d="m0 0h11l9 6v2h2v-6h19v40h-19l-4-17-2-3-5-1-4 3-1 4v61l2 8 2 2h6l3-4 4-18 9 2 10 3 2 1v7l-3 10-6 10-8 7-7 3-11 1-9-2-9-6-8-9-6-13-3-15-1-10v-14l2-16 3-12 5-10 9-10z" fill="#0D0D0D"/>
<path transform="translate(1211,455)" d="m0 0 10 2 7 5 1-5h18v35l-1 1h-16l-1-1-3-14-3-3h-7l-3 5 1 8 4 6 16 15 8 9 6 12 2 8v10l-4 13-9 10-9 4h-9l-9-4-3-2-2 5h-16l-1-1v-38h18l2 14 3 5 1 1h7l3-3 1-3v-7l-4-9-23-23-7-12-2-8v-12l3-9 4-6 6-5 5-2z" fill="#0B0B0B"/>
<path transform="translate(934,455)" d="m0 0 10 2 8 5v-5h18v35l-1 1h-16l-1-1-2-12-1-4-9-1-3 3v9l4 7 14 13 5 5 6 7 5 10 2 9v10l-3 11-6 9-5 4-8 3h-9l-10-5-3-2v6h-17l-1-1v-38h18l2 13 3 6 2 1h6l3-2 1-3v-9l-4-8-9-10-8-7-7-8-6-11-2-9v-9l3-10 6-8 6-4z" fill="#0C0C0C"/>
<path transform="translate(788,455)" d="m0 0 11 2 8 5v-5h18v35l-1 1h-16l-2-6-2-9-3-3h-7l-3 5 1 8 4 6 16 15 8 9 6 11 2 11-1 13-4 9-4 6-10 6-3 1h-9l-9-4-4-3v5l-1 1h-16l-1-1v-38h18l2 14 4 6h7l3-3 1-3v-8l-4-8-22-22-7-11-3-9v-14l4-10 7-8 7-3z" fill="#0B0B0B"/>
<path transform="translate(1055,457)" d="m0 0h51v17l-1 1h-11l1 80h9l2 1v17l-1 1h-50v-18l1-1h7l2 1v-81h-10z" fill="#0C0C0C"/>
</svg>
