<?xml version="1.0" encoding="UTF-8" standalone="no"?>
<!-- Created with Inkscape (http://www.inkscape.org/) -->

<svg
   xmlns:dc="http://purl.org/dc/elements/1.1/"
   xmlns:cc="http://creativecommons.org/ns#"
   xmlns:rdf="http://www.w3.org/1999/02/22-rdf-syntax-ns#"
   xmlns:svg="http://www.w3.org/2000/svg"
   xmlns="http://www.w3.org/2000/svg"
   xmlns:sodipodi="http://sodipodi.sourceforge.net/DTD/sodipodi-0.dtd"
   xmlns:inkscape="http://www.inkscape.org/namespaces/inkscape"
   width="110.79174"
   height="110.79688"
   viewBox="0 0 29.313647 29.315009"
   version="1.1"
   id="svg10393"
   inkscape:version="0.92.1 r15371"
   sodipodi:docname="Logo Ecolabel.svg">
  <defs
     id="defs10387">
    <clipPath
       id="clip308">
      <path
         inkscape:connector-curvature="0"
         d="m 411,492 h 6 v 1 h -6 z m 0,0"
         id="path2415" />
    </clipPath>
    <clipPath
       id="clip309">
      <path
         inkscape:connector-curvature="0"
         d="m 372.27344,516.96875 c 0,13.5 10.94922,24.44922 24.44922,24.44922 13.50781,0 24.45312,-10.94922 24.45312,-24.44922 0,-13.50781 -10.94531,-24.45313 -24.45312,-24.45313 -13.5,0 -24.44922,10.94532 -24.44922,24.45313"
         id="path2418" />
    </clipPath>
    <clipPath
       id="clip302">
      <path
         inkscape:connector-curvature="0"
         d="m 412,505 h 9 v 10 h -9 z m 0,0"
         id="path2397" />
    </clipPath>
    <clipPath
       id="clip303">
      <path
         inkscape:connector-curvature="0"
         d="m 372.27344,516.96875 c 0,13.5 10.94922,24.44922 24.44922,24.44922 13.50781,0 24.45312,-10.94922 24.45312,-24.44922 0,-13.50781 -10.94531,-24.45313 -24.45312,-24.45313 -13.5,0 -24.44922,10.94532 -24.44922,24.45313"
         id="path2400" />
    </clipPath>
    <clipPath
       id="clip284">
      <path
         inkscape:connector-curvature="0"
         d="m 391,492 h 13 v 1 h -13 z m 0,0"
         id="path2343" />
    </clipPath>
    <clipPath
       id="clip285">
      <path
         inkscape:connector-curvature="0"
         d="m 372.27344,516.96875 c 0,13.5 10.94922,24.44922 24.44922,24.44922 13.50781,0 24.45312,-10.94922 24.45312,-24.44922 0,-13.50781 -10.94531,-24.45313 -24.45312,-24.45313 -13.5,0 -24.44922,10.94532 -24.44922,24.45313"
         id="path2346" />
    </clipPath>
    <clipPath
       id="clip272">
      <path
         inkscape:connector-curvature="0"
         d="m 401,492 h 7 v 1 h -7 z m 0,0"
         id="path2307" />
    </clipPath>
    <clipPath
       id="clip273">
      <path
         inkscape:connector-curvature="0"
         d="m 372.27344,516.96875 c 0,13.5 10.94922,24.44922 24.44922,24.44922 13.50781,0 24.45312,-10.94922 24.45312,-24.44922 0,-13.50781 -10.94531,-24.45313 -24.45312,-24.45313 -13.5,0 -24.44922,10.94532 -24.44922,24.45313"
         id="path2310" />
    </clipPath>
    <clipPath
       id="clip260">
      <path
         inkscape:connector-curvature="0"
         d="m 394,501 h 8 v 5 h -8 z m 0,0"
         id="path2271" />
    </clipPath>
    <clipPath
       id="clip261">
      <path
         inkscape:connector-curvature="0"
         d="m 372.27344,516.96875 c 0,13.5 10.94922,24.44922 24.44922,24.44922 13.50781,0 24.45312,-10.94922 24.45312,-24.44922 0,-13.50781 -10.94531,-24.45313 -24.45312,-24.45313 -13.5,0 -24.44922,10.94532 -24.44922,24.45313"
         id="path2274" />
    </clipPath>
    <clipPath
       id="clip256">
      <path
         inkscape:connector-curvature="0"
         d="m 391,505 h 10 v 15 h -10 z m 0,0"
         id="path2259" />
    </clipPath>
    <clipPath
       id="clip257">
      <path
         inkscape:connector-curvature="0"
         d="m 372.27344,516.96875 c 0,13.5 10.94922,24.44922 24.44922,24.44922 13.50781,0 24.45312,-10.94922 24.45312,-24.44922 0,-13.50781 -10.94531,-24.45313 -24.45312,-24.45313 -13.5,0 -24.44922,10.94532 -24.44922,24.45313"
         id="path2262" />
    </clipPath>
    <clipPath
       id="clip254">
      <path
         inkscape:connector-curvature="0"
         d="m 398,505 h 8 v 18 h -8 z m 0,0"
         id="path2253" />
    </clipPath>
    <clipPath
       id="clip255">
      <path
         inkscape:connector-curvature="0"
         d="m 372.27344,516.96875 c 0,13.5 10.94922,24.44922 24.44922,24.44922 13.50781,0 24.45312,-10.94922 24.45312,-24.44922 0,-13.50781 -10.94531,-24.45313 -24.45312,-24.45313 -13.5,0 -24.44922,10.94532 -24.44922,24.45313"
         id="path2256" />
    </clipPath>
    <clipPath
       id="clip252">
      <path
         inkscape:connector-curvature="0"
         d="m 398,501 h 9 v 8 h -9 z m 0,0"
         id="path2247" />
    </clipPath>
    <clipPath
       id="clip253">
      <path
         inkscape:connector-curvature="0"
         d="m 372.27344,516.96875 c 0,13.5 10.94922,24.44922 24.44922,24.44922 13.50781,0 24.45312,-10.94922 24.45312,-24.44922 0,-13.50781 -10.94531,-24.45313 -24.45312,-24.45313 -13.5,0 -24.44922,10.94532 -24.44922,24.45313"
         id="path2250" />
    </clipPath>
    <clipPath
       id="clip250">
      <path
         inkscape:connector-curvature="0"
         d="m 388,514 h 4 v 4 h -4 z m 0,0"
         id="path2241" />
    </clipPath>
    <clipPath
       id="clip251">
      <path
         inkscape:connector-curvature="0"
         d="m 372.27344,516.96875 c 0,13.5 10.94922,24.44922 24.44922,24.44922 13.50781,0 24.45312,-10.94922 24.45312,-24.44922 0,-13.50781 -10.94531,-24.45313 -24.45312,-24.45313 -13.5,0 -24.44922,10.94532 -24.44922,24.45313"
         id="path2244" />
    </clipPath>
    <clipPath
       id="clip240">
      <path
         inkscape:connector-curvature="0"
         d="m 407,492 h 7 v 1 h -7 z m 0,0"
         id="path2211" />
    </clipPath>
    <clipPath
       id="clip241">
      <path
         inkscape:connector-curvature="0"
         d="m 372.27344,516.96875 c 0,13.5 10.94922,24.44922 24.44922,24.44922 13.50781,0 24.45312,-10.94922 24.45312,-24.44922 0,-13.50781 -10.94531,-24.45313 -24.45312,-24.45313 -13.5,0 -24.44922,10.94532 -24.44922,24.45313"
         id="path2214" />
    </clipPath>
    <clipPath
       id="clip228">
      <path
         inkscape:connector-curvature="0"
         d="m 404,502 h 11 v 12 h -11 z m 0,0"
         id="path2175" />
    </clipPath>
    <clipPath
       id="clip229">
      <path
         inkscape:connector-curvature="0"
         d="m 372.27344,516.96875 c 0,13.5 10.94922,24.44922 24.44922,24.44922 13.50781,0 24.45312,-10.94922 24.45312,-24.44922 0,-13.50781 -10.94531,-24.45313 -24.45312,-24.45313 -13.5,0 -24.44922,10.94532 -24.44922,24.45313"
         id="path2178" />
    </clipPath>
    <clipPath
       id="clip202">
      <path
         inkscape:connector-curvature="0"
         d="m 405,505 h 17 v 18 h -17 z m 0,0"
         id="path2097" />
    </clipPath>
    <clipPath
       id="clip203">
      <path
         inkscape:connector-curvature="0"
         d="m 372.27344,516.96875 c 0,13.5 10.94922,24.44922 24.44922,24.44922 13.50781,0 24.45312,-10.94922 24.45312,-24.44922 0,-13.50781 -10.94531,-24.45313 -24.45312,-24.45313 -13.5,0 -24.44922,10.94532 -24.44922,24.45313"
         id="path2100" />
    </clipPath>
    <clipPath
       id="clip150">
      <path
         inkscape:connector-curvature="0"
         d="m 406,492 h 5 v 1 h -5 z m 0,0"
         id="path1941" />
    </clipPath>
    <clipPath
       id="clip151">
      <path
         inkscape:connector-curvature="0"
         d="m 372.27344,516.96875 c 0,13.5 10.94922,24.44922 24.44922,24.44922 13.50781,0 24.45312,-10.94922 24.45312,-24.44922 0,-13.50781 -10.94531,-24.45313 -24.45312,-24.45313 -13.5,0 -24.44922,10.94532 -24.44922,24.45313"
         id="path1944" />
    </clipPath>
    <clipPath
       id="clip146">
      <path
         inkscape:connector-curvature="0"
         d="m 390,492 h 18 v 6 h -18 z m 0,0"
         id="path1929" />
    </clipPath>
    <clipPath
       id="clip147">
      <path
         inkscape:connector-curvature="0"
         d="m 372.27344,516.96875 c 0,13.5 10.94922,24.44922 24.44922,24.44922 13.50781,0 24.45312,-10.94922 24.45312,-24.44922 0,-13.50781 -10.94531,-24.45313 -24.45312,-24.45313 -13.5,0 -24.44922,10.94532 -24.44922,24.45313"
         id="path1932" />
    </clipPath>
    <clipPath
       id="clip132">
      <path
         inkscape:connector-curvature="0"
         d="m 389,500 h 12 v 12 h -12 z m 0,0"
         id="path1887" />
    </clipPath>
    <clipPath
       id="clip133">
      <path
         inkscape:connector-curvature="0"
         d="m 372.27344,516.96875 c 0,13.5 10.94922,24.44922 24.44922,24.44922 13.50781,0 24.45312,-10.94922 24.45312,-24.44922 0,-13.50781 -10.94531,-24.45313 -24.45312,-24.45313 -13.5,0 -24.44922,10.94532 -24.44922,24.45313"
         id="path1890" />
    </clipPath>
    <clipPath
       id="clip128">
      <path
         inkscape:connector-curvature="0"
         d="m 396,511 h 1 v 1 h -1 z m 0,0"
         id="path1875" />
    </clipPath>
    <clipPath
       id="clip129">
      <path
         inkscape:connector-curvature="0"
         d="m 372.27344,516.96875 c 0,13.5 10.94922,24.44922 24.44922,24.44922 13.50781,0 24.45312,-10.94922 24.45312,-24.44922 0,-13.50781 -10.94531,-24.45313 -24.45312,-24.45313 -13.5,0 -24.44922,10.94532 -24.44922,24.45313"
         id="path1878" />
    </clipPath>
    <clipPath
       id="clip126">
      <path
         inkscape:connector-curvature="0"
         d="m 396,508 h 21 v 12 h -21 z m 0,0"
         id="path1869" />
    </clipPath>
    <clipPath
       id="clip127">
      <path
         inkscape:connector-curvature="0"
         d="m 372.27344,516.96875 c 0,13.5 10.94922,24.44922 24.44922,24.44922 13.50781,0 24.45312,-10.94922 24.45312,-24.44922 0,-13.50781 -10.94531,-24.45313 -24.45312,-24.45313 -13.5,0 -24.44922,10.94532 -24.44922,24.45313"
         id="path1872" />
    </clipPath>
    <clipPath
       id="clip124">
      <path
         inkscape:connector-curvature="0"
         d="m 398,498 h 24 v 12 h -24 z m 0,0"
         id="path1863" />
    </clipPath>
    <clipPath
       id="clip125">
      <path
         inkscape:connector-curvature="0"
         d="m 372.27344,516.96875 c 0,13.5 10.94922,24.44922 24.44922,24.44922 13.50781,0 24.45312,-10.94922 24.45312,-24.44922 0,-13.50781 -10.94531,-24.45313 -24.45312,-24.45313 -13.5,0 -24.44922,10.94532 -24.44922,24.45313"
         id="path1866" />
    </clipPath>
    <clipPath
       id="clip122">
      <path
         inkscape:connector-curvature="0"
         d="m 408,518 h 7 v 6 h -7 z m 0,0"
         id="path1857" />
    </clipPath>
    <clipPath
       id="clip123">
      <path
         inkscape:connector-curvature="0"
         d="m 372.27344,516.96875 c 0,13.5 10.94922,24.44922 24.44922,24.44922 13.50781,0 24.45312,-10.94922 24.45312,-24.44922 0,-13.50781 -10.94531,-24.45313 -24.45312,-24.45313 -13.5,0 -24.44922,10.94532 -24.44922,24.45313"
         id="path1860" />
    </clipPath>
    <clipPath
       id="clip112">
      <path
         inkscape:connector-curvature="0"
         d="m 400,492 h 17 v 14 h -17 z m 0,0"
         id="path1827" />
    </clipPath>
    <clipPath
       id="clip113">
      <path
         inkscape:connector-curvature="0"
         d="m 372.27344,516.96875 c 0,13.5 10.94922,24.44922 24.44922,24.44922 13.50781,0 24.45312,-10.94922 24.45312,-24.44922 0,-13.50781 -10.94531,-24.45313 -24.45312,-24.45313 -13.5,0 -24.44922,10.94532 -24.44922,24.45313"
         id="path1830" />
    </clipPath>
    <clipPath
       id="clip110">
      <path
         inkscape:connector-curvature="0"
         d="m 389,492 h 18 v 12 h -18 z m 0,0"
         id="path1821" />
    </clipPath>
    <clipPath
       id="clip111">
      <path
         inkscape:connector-curvature="0"
         d="m 372.27344,516.96875 c 0,13.5 10.94922,24.44922 24.44922,24.44922 13.50781,0 24.45312,-10.94922 24.45312,-24.44922 0,-13.50781 -10.94531,-24.45313 -24.45312,-24.45313 -13.5,0 -24.44922,10.94532 -24.44922,24.45313"
         id="path1824" />
    </clipPath>
    <clipPath
       id="clip105">
      <path
         inkscape:connector-curvature="0"
         d="m 412,437.32812 h 75.97266 V 513 H 412 Z m 0,0"
         id="path1806" />
    </clipPath>
  </defs>
  <sodipodi:namedview
     id="base"
     pagecolor="#ffffff"
     bordercolor="#666666"
     borderopacity="1.0"
     inkscape:pageopacity="0.0"
     inkscape:pageshadow="2"
     inkscape:zoom="3.6404594"
     inkscape:cx="99.706904"
     inkscape:cy="55.288204"
     inkscape:document-units="mm"
     inkscape:current-layer="layer1"
     showgrid="false"
     fit-margin-top="5"
     fit-margin-left="5"
     fit-margin-right="5"
     fit-margin-bottom="5"
     inkscape:window-width="1920"
     inkscape:window-height="992"
     inkscape:window-x="0"
     inkscape:window-y="31"
     inkscape:window-maximized="1"
     units="px" />
  <metadata
     id="metadata10390">
    <rdf:RDF>
      <cc:Work
         rdf:about="">
        <dc:format>image/svg+xml</dc:format>
        <dc:type
           rdf:resource="http://purl.org/dc/dcmitype/StillImage" />
        <dc:title></dc:title>
      </cc:Work>
    </rdf:RDF>
  </metadata>
  <g
     inkscape:label="Calque 1"
     inkscape:groupmode="layer"
     id="layer1"
     transform="translate(-90.148483,-111.93439)">
    <path
       inkscape:connector-curvature="0"
       style="fill:#28215c;fill-opacity:1;fill-rule:nonzero;stroke:none;stroke-width:0.35277778"
       d="m 117.64174,129.27975 c 0.001,0.005 0.001,0.01 0.001,0.0152 l 0.0648,-0.0537 c -0.022,0.0138 -0.0441,0.0262 -0.0661,0.0386"
       id="path8454" />
    <g
       transform="matrix(0.3527778,0,0,0.3527778,-54.006707,-41.022345)"
       style="clip-rule:nonzero"
       clip-path="url(#clip105)"
       id="g8460">
      <path
         inkscape:connector-curvature="0"
         style="fill:#ffffff;fill-opacity:1;fill-rule:nonzero;stroke:none"
         d="m 485.9375,437.48828 0.0273,-0.11719 0.0156,-0.0273 c 0,0.0117 0.0234,-0.0117 0.0351,0.0742 -0.0273,0.0742 -0.0586,0.0703 -0.0742,0.0703 -0.004,0 -0.004,0 -0.004,0 z m 0.0312,-0.13672 0.008,-0.0117 z m 1.41016,0.60156 c -0.36719,-0.38281 -0.87891,-0.625 -1.44141,-0.625 h -71.52344 c -0.5625,0 -1.07422,0.24219 -1.4414,0.625 -0.36719,0.38282 -0.59375,0.91016 -0.59375,1.49219 v 71.36719 c 0,0.58203 0.22656,1.10937 0.59375,1.49219 0.36718,0.38281 0.8789,0.62109 1.44531,0.62109 h 71.51953 c 0.5625,0 1.07422,-0.23828 1.44141,-0.62109 0.35156,-0.36719 0.57421,-0.86328 0.59375,-1.41407 h 0.004 v -71.44531 c 0,-0.58203 -0.23047,-1.10937 -0.59765,-1.49219"
         id="path8456" />
      <path
         inkscape:connector-curvature="0"
         style="fill:#286199;fill-opacity:1;fill-rule:nonzero;stroke:none"
         d="m 485.96875,437.34766 0.004,-0.008 z m -0.0312,0.14062 c 0,0 0,0 0.004,0 0.0156,0 0.0469,0.004 0.0742,-0.0703 -0.008,-0.0859 -0.0351,-0.0625 -0.0351,-0.0742 l -0.0156,0.0273 z m -72.08984,0.0937 c 0.17187,-0.0586 0.35937,-0.0898 0.55078,-0.0898 -0.19141,0 -0.37891,0.0312 -0.55078,0.0898 m -0.64454,0.59375 c -0.30859,0.32422 -0.5039,0.77344 -0.5039,1.26953 v 71.36328 c 0,0.5 0.19531,0.94922 0.5039,1.27344 0.3125,0.32422 0.73829,0.52344 1.21485,0.52344 h 71.51953 c 0.47266,0 0.89844,-0.19922 1.21094,-0.52344 0.3125,-0.32422 0.5039,-0.77344 0.5039,-1.27344 v -71.36328 c 0,-0.49609 -0.1914,-0.94531 -0.5039,-1.26953 -0.3125,-0.32812 -0.73828,-0.52344 -1.21094,-0.52344 h -71.51953 c -0.47656,0 -0.90235,0.19532 -1.21485,0.52344 m 1.21485,74.75 c -0.56641,0 -1.07813,-0.23828 -1.44531,-0.62109 -0.36719,-0.38282 -0.59375,-0.91407 -0.59375,-1.4961 v -71.36328 c 0,-0.58203 0.22656,-1.10937 0.59375,-1.49219 0.36718,-0.38281 0.8789,-0.625 1.44531,-0.625 h 71.51953 c 0.5625,0 1.07422,0.24219 1.44141,0.625 0.36718,0.38282 0.59375,0.91016 0.59375,1.49219 v 71.44531 c -0.0195,0.55079 -0.24219,1.04688 -0.59375,1.41407 -0.36719,0.38281 -0.87891,0.62109 -1.44141,0.62109 z m 0,0"
         id="path8458" />
    </g>
    <path
       inkscape:connector-curvature="0"
       style="fill:#4fa630;fill-opacity:1;fill-rule:nonzero;stroke:none;stroke-width:0.35277778"
       d="m 96.723113,136.72942 -0.35553,1.14929 h -0.39136 l -0.23427,-0.77446 -0.23013,0.77446 h -0.3955 l -0.35277,-1.14929 h 0.38585 l 0.19706,0.79238 0.24529,-0.79238 h 0.32659 l 0.23289,0.79238 0.1943,-0.79238 z m 0,0"
       id="path8462" />
    <path
       inkscape:connector-curvature="0"
       style="fill:#4fa630;fill-opacity:1;fill-rule:nonzero;stroke:none;stroke-width:0.35277778"
       d="m 98.775013,136.72942 -0.35553,1.14929 h -0.39136 l -0.23427,-0.77446 -0.23013,0.77446 h -0.3955 l -0.35278,-1.14929 h 0.38585 l 0.19707,0.79238 0.24529,-0.79238 h 0.32659 l 0.23289,0.79238 0.1943,-0.79238 z m 0,0"
       id="path8464" />
    <path
       inkscape:connector-curvature="0"
       style="fill:#4fa630;fill-opacity:1;fill-rule:nonzero;stroke:none;stroke-width:0.35277778"
       d="m 100.82692,136.72942 -0.35554,1.14929 h -0.38998 l -0.234267,-0.77446 -0.23151,0.77446 h -0.3955 l -0.35278,-1.14929 h 0.38585 l 0.19844,0.79238 0.24392,-0.79238 h 0.326587 l 0.23289,0.79238 0.1943,-0.79238 z m 0,0"
       id="path8466" />
    <path
       inkscape:connector-curvature="0"
       style="fill:#4fa630;fill-opacity:1;fill-rule:nonzero;stroke:none;stroke-width:0.35277778"
       d="m 101.4429,137.87871 h -0.38172 v -0.40239 h 0.38172 z m 0,0"
       id="path8468" />
    <path
       inkscape:connector-curvature="0"
       style="fill:#4fa630;fill-opacity:1;fill-rule:nonzero;stroke:none;stroke-width:0.35277778"
       d="m 102.57013,137.15662 c -0.003,-0.0772 -0.0221,-0.13505 -0.0579,-0.17364 -0.0358,-0.0386 -0.0923,-0.0593 -0.16812,-0.0593 -0.0717,0 -0.12953,0.0193 -0.17501,0.0551 -0.0455,0.0372 -0.0717,0.0965 -0.0772,0.17777 z m 0.36518,0.21635 h -0.84198 c 0.005,0.0896 0.0386,0.15847 0.10197,0.20671 0.0634,0.0469 0.15572,0.0703 0.27975,0.0703 0.0772,0 0.15296,-0.0138 0.226,-0.0413 0.073,-0.0275 0.12953,-0.0579 0.17225,-0.0896 h 0.0413 v 0.2949 c -0.0841,0.0331 -0.16261,0.0579 -0.23564,0.073 -0.073,0.0152 -0.15572,0.0221 -0.24392,0.0221 -0.23151,0 -0.4079,-0.051 -0.53054,-0.15572 -0.12265,-0.10335 -0.18466,-0.2508 -0.18466,-0.44235 0,-0.19017 0.0593,-0.339 0.17501,-0.45062 0.11576,-0.11162 0.27561,-0.16674 0.47818,-0.16674 0.18741,0 0.32797,0.0482 0.42168,0.14193 0.0937,0.0951 0.14056,0.23014 0.14056,0.4079 z m 0,0"
       id="path8470" />
    <path
       inkscape:connector-curvature="0"
       style="fill:#4fa630;fill-opacity:1;fill-rule:nonzero;stroke:none;stroke-width:0.35277778"
       d="m 103.79383,137.90903 c -0.1006,0 -0.19155,-0.011 -0.27423,-0.0358 -0.0827,-0.0234 -0.15572,-0.0606 -0.21635,-0.11025 -0.0606,-0.0496 -0.10749,-0.113 -0.14194,-0.18741 -0.0331,-0.0758 -0.0496,-0.16537 -0.0496,-0.26596 0,-0.10749 0.0179,-0.19982 0.0537,-0.27837 0.0358,-0.0772 0.0854,-0.14193 0.15021,-0.19292 0.062,-0.0482 0.13367,-0.0841 0.21497,-0.10611 0.0813,-0.0234 0.16537,-0.0344 0.25218,-0.0344 0.0786,0 0.15021,0.01 0.21635,0.0262 0.0661,0.0165 0.12816,0.0386 0.18604,0.0661 v 0.31419 h -0.0524 c -0.0138,-0.0124 -0.0317,-0.0262 -0.051,-0.0427 -0.0207,-0.0165 -0.0455,-0.0331 -0.0744,-0.0482 -0.0276,-0.0152 -0.0593,-0.0275 -0.0923,-0.0372 -0.0331,-0.01 -0.0717,-0.0152 -0.11575,-0.0152 -0.0992,0 -0.17364,0.0317 -0.22738,0.0937 -0.0524,0.062 -0.0786,0.14745 -0.0786,0.25493 0,0.11025 0.0275,0.19431 0.0813,0.25081 0.0537,0.0579 0.13091,0.0868 0.23013,0.0868 0.0469,0 0.0882,-0.005 0.1254,-0.0165 0.0372,-0.011 0.0675,-0.0234 0.0923,-0.0372 0.0234,-0.0138 0.0441,-0.0289 0.0606,-0.0427 0.0179,-0.0152 0.0344,-0.0303 0.0496,-0.0441 h 0.0524 v 0.31419 c -0.0579,0.0262 -0.11851,0.0482 -0.1819,0.0648 -0.0634,0.0152 -0.13229,0.0234 -0.20946,0.0234"
       id="path8472" />
    <path
       inkscape:connector-curvature="0"
       style="fill:#4fa630;fill-opacity:1;fill-rule:nonzero;stroke:none;stroke-width:0.35277778"
       d="m 105.14982,137.58381 c 0.0234,-0.0289 0.0413,-0.0648 0.0538,-0.10611 0.011,-0.0413 0.0179,-0.0978 0.0179,-0.17088 0,-0.0675 -0.007,-0.12402 -0.0193,-0.1695 -0.0124,-0.0455 -0.0289,-0.0827 -0.051,-0.11024 -0.0221,-0.0275 -0.0482,-0.0468 -0.0786,-0.0593 -0.0303,-0.011 -0.0634,-0.0165 -0.0992,-0.0165 -0.0358,0 -0.0661,0.004 -0.0951,0.0138 -0.0276,0.01 -0.0537,0.0289 -0.0786,0.0579 -0.0234,0.0262 -0.04,0.0634 -0.0538,0.10887 -0.0138,0.0469 -0.0193,0.10473 -0.0193,0.17501 0,0.0634 0.005,0.11713 0.0165,0.16261 0.0124,0.0469 0.0289,0.0841 0.051,0.11162 0.022,0.0262 0.0482,0.0455 0.0785,0.0579 0.0303,0.0124 0.0648,0.0193 0.10335,0.0193 0.0344,0 0.0661,-0.006 0.0965,-0.0179 0.0303,-0.011 0.0551,-0.0303 0.0772,-0.0565 m 0.45338,-0.27975 c 0,0.19017 -0.0551,0.339 -0.16537,0.44787 -0.11024,0.10748 -0.26458,0.16261 -0.4644,0.16261 -0.19844,0 -0.35278,-0.0551 -0.46439,-0.16261 -0.10887,-0.10887 -0.16399,-0.2577 -0.16399,-0.44787 0,-0.18879 0.0551,-0.33899 0.16536,-0.44786 0.11162,-0.10749 0.26596,-0.16261 0.46302,-0.16261 0.2012,0 0.35554,0.0551 0.4644,0.16399 0.11025,0.10887 0.16537,0.25907 0.16537,0.44648"
       id="path8474" />
    <path
       inkscape:connector-curvature="0"
       style="fill:#4fa630;fill-opacity:1;fill-rule:nonzero;stroke:none;stroke-width:0.35277778"
       d="m 106.23571,137.87871 h -0.36931 v -1.59164 h 0.36931 z m 0,0"
       id="path8476" />
    <path
       inkscape:connector-curvature="0"
       style="fill:#4fa630;fill-opacity:1;fill-rule:nonzero;stroke:none;stroke-width:0.35277778"
       d="m 107.27889,137.5783 v -0.2384 c -0.051,0.004 -0.10473,0.01 -0.16261,0.0165 -0.0579,0.007 -0.10197,0.0152 -0.13091,0.0248 -0.0372,0.0124 -0.0661,0.0289 -0.0854,0.051 -0.0193,0.0221 -0.0289,0.051 -0.0289,0.0868 0,0.0234 0.003,0.0427 0.005,0.0579 0.006,0.0152 0.0152,0.0289 0.0317,0.0427 0.0152,0.0138 0.0344,0.0234 0.0565,0.0303 0.0221,0.007 0.0551,0.01 0.10197,0.01 0.0372,0 0.0744,-0.007 0.11162,-0.0221 0.0386,-0.0152 0.0717,-0.0345 0.1006,-0.0593 m 0,0.17914 c -0.0207,0.0152 -0.0455,0.0331 -0.0744,0.0538 -0.0289,0.0207 -0.0565,0.0386 -0.0827,0.0496 -0.0358,0.0165 -0.073,0.0289 -0.113,0.0372 -0.0386,0.008 -0.0813,0.011 -0.12678,0.011 -0.11024,0 -0.20119,-0.0331 -0.27423,-0.1006 -0.0744,-0.0675 -0.11162,-0.15434 -0.11162,-0.25907 0,-0.0841 0.0193,-0.15296 0.0565,-0.20532 0.0386,-0.0537 0.091,-0.0951 0.15985,-0.12541 0.0689,-0.0317 0.15296,-0.0537 0.25356,-0.0661 0.1006,-0.0124 0.20533,-0.0221 0.31419,-0.0289 v -0.006 c 0,-0.0634 -0.0262,-0.10748 -0.0786,-0.13229 -0.051,-0.0234 -0.12678,-0.0358 -0.22875,-0.0358 -0.0606,0 -0.1254,0.011 -0.1943,0.0317 -0.0689,0.0221 -0.11714,0.0386 -0.14883,0.0496 h -0.0331 v -0.27699 c 0.0386,-0.01 0.10197,-0.022 0.19017,-0.0358 0.0868,-0.0138 0.17501,-0.0221 0.2632,-0.0221 0.20946,0 0.36105,0.0331 0.45338,0.0978 0.0937,0.0634 0.13918,0.16537 0.13918,0.30317 v 0.78135 h -0.3638 z m 0,0"
       id="path8478" />
    <path
       inkscape:connector-curvature="0"
       style="fill:#4fa630;fill-opacity:1;fill-rule:nonzero;stroke:none;stroke-width:0.35277778"
       d="m 108.80162,137.2958 c 0,-0.10197 -0.0179,-0.18052 -0.0524,-0.23565 -0.0345,-0.0551 -0.0965,-0.0827 -0.18603,-0.0827 -0.0344,0 -0.0703,0.005 -0.10611,0.0165 -0.0372,0.01 -0.073,0.0248 -0.10611,0.0441 v 0.57602 c 0.0262,0.01 0.0524,0.0165 0.0758,0.0207 0.0234,0.003 0.0524,0.004 0.0854,0.004 0.0978,0 0.1695,-0.0276 0.21773,-0.0854 0.0482,-0.0565 0.0717,-0.14331 0.0717,-0.25769 m 0.37896,-0.007 c 0,0.18052 -0.0496,0.32797 -0.14883,0.44097 -0.1006,0.11438 -0.22462,0.17088 -0.37345,0.17088 -0.0648,0 -0.12126,-0.007 -0.1695,-0.0207 -0.0482,-0.0124 -0.0937,-0.0331 -0.1378,-0.0593 l -0.0152,0.0579 h -0.35415 v -1.59164 h 0.36931 v 0.56224 c 0.0565,-0.0441 0.11438,-0.0813 0.17363,-0.10886 0.0593,-0.0275 0.12678,-0.0427 0.20395,-0.0427 0.1447,0 0.25632,0.0524 0.33486,0.15709 0.0786,0.10473 0.11714,0.24943 0.11714,0.43408"
       id="path8480" />
    <path
       inkscape:connector-curvature="0"
       style="fill:#4fa630;fill-opacity:1;fill-rule:nonzero;stroke:none;stroke-width:0.35277778"
       d="m 110.21273,137.15662 c -0.003,-0.0772 -0.022,-0.13505 -0.0579,-0.17364 -0.0358,-0.0386 -0.0923,-0.0593 -0.1695,-0.0593 -0.0703,0 -0.12815,0.0193 -0.175,0.0551 -0.0455,0.0372 -0.0703,0.0965 -0.0758,0.17777 z m 0.36518,0.21635 h -0.84335 c 0.007,0.0896 0.04,0.15847 0.10335,0.20671 0.0634,0.0469 0.15571,0.0703 0.27836,0.0703 0.0786,0 0.15434,-0.0138 0.22738,-0.0413 0.073,-0.0275 0.12953,-0.0579 0.17225,-0.0896 h 0.0413 v 0.2949 c -0.0841,0.0331 -0.16261,0.0579 -0.23564,0.073 -0.0744,0.0152 -0.15572,0.0221 -0.24529,0.0221 -0.23014,0 -0.40653,-0.051 -0.52917,-0.15572 -0.12265,-0.10335 -0.18466,-0.2508 -0.18466,-0.44235 0,-0.19017 0.0592,-0.339 0.17501,-0.45062 0.11576,-0.11162 0.27561,-0.16674 0.47818,-0.16674 0.18741,0 0.32798,0.0482 0.42168,0.14193 0.0937,0.0951 0.14056,0.23014 0.14056,0.4079 z m 0,0"
       id="path8482" />
    <path
       inkscape:connector-curvature="0"
       style="fill:#4fa630;fill-opacity:1;fill-rule:nonzero;stroke:none;stroke-width:0.35277778"
       d="m 111.20768,137.87871 h -0.36932 v -1.59164 h 0.36932 z m 0,0"
       id="path8484" />
    <path
       inkscape:connector-curvature="0"
       style="fill:#4fa630;fill-opacity:1;fill-rule:nonzero;stroke:none;stroke-width:0.35277778"
       d="m 111.95044,137.87871 h -0.38309 v -0.40239 h 0.38309 z m 0,0"
       id="path8486" />
    <path
       inkscape:connector-curvature="0"
       style="fill:#4fa630;fill-opacity:1;fill-rule:nonzero;stroke:none;stroke-width:0.35277778"
       d="m 113.0763,137.15662 c -0.003,-0.0772 -0.0207,-0.13505 -0.0565,-0.17364 -0.0372,-0.0386 -0.0937,-0.0593 -0.1695,-0.0593 -0.0717,0 -0.12954,0.0193 -0.17502,0.0551 -0.0455,0.0372 -0.0717,0.0965 -0.0772,0.17777 z m 0.36655,0.21635 h -0.84335 c 0.005,0.0896 0.04,0.15847 0.10335,0.20671 0.062,0.0469 0.15572,0.0703 0.27836,0.0703 0.0772,0 0.15297,-0.0138 0.226,-0.0413 0.073,-0.0275 0.13091,-0.0579 0.17226,-0.0896 h 0.0413 v 0.2949 c -0.0827,0.0331 -0.16124,0.0579 -0.23565,0.073 -0.073,0.0152 -0.15434,0.0221 -0.24391,0.0221 -0.23013,0 -0.40652,-0.051 -0.53055,-0.15572 -0.12264,-0.10335 -0.18328,-0.2508 -0.18328,-0.44235 0,-0.19017 0.0579,-0.339 0.17502,-0.45062 0.11575,-0.11162 0.27422,-0.16674 0.4768,-0.16674 0.18741,0 0.32797,0.0482 0.42168,0.14193 0.0951,0.0951 0.14193,0.23014 0.14193,0.4079 z m 0,0"
       id="path8488" />
    <path
       inkscape:connector-curvature="0"
       style="fill:#4fa630;fill-opacity:1;fill-rule:nonzero;stroke:none;stroke-width:0.35277778"
       d="m 114.84707,137.87871 h -0.36931 v -0.12678 c -0.0689,0.051 -0.13091,0.091 -0.18741,0.11851 -0.0565,0.0262 -0.12402,0.04 -0.2012,0.04 -0.12678,0 -0.22462,-0.0372 -0.29352,-0.10886 -0.0689,-0.073 -0.10197,-0.18053 -0.10197,-0.32384 v -0.74828 h 0.36931 v 0.57051 c 0,0.0579 10e-4,0.10611 0.005,0.14469 0.003,0.0386 0.0124,0.0703 0.0262,0.0951 0.0124,0.0262 0.0317,0.0441 0.0579,0.0551 0.0262,0.0124 0.0634,0.0179 0.11025,0.0179 0.0317,0 0.0661,-0.006 0.10473,-0.0179 0.0386,-0.011 0.0744,-0.0289 0.11024,-0.051 v -0.81442 h 0.36931 z m 0,0"
       id="path8490" />
    <path
       inkscape:connector-curvature="0"
       style="fill:#286199;fill-opacity:1;fill-rule:nonzero;stroke:none;stroke-width:0.35277778"
       d="m 96.016183,135.63251 v -6.64077 h 1.86036 v 0.52641 h -1.34221 v 2.79328 h 0.81579 v 0.52641 h -0.81579 v 2.26826 h 1.34221 v 0.52641 z m 0,0"
       id="path8492" />
    <path
       inkscape:connector-curvature="0"
       style="fill:#286199;fill-opacity:1;fill-rule:nonzero;stroke:none;stroke-width:0.35277778"
       d="m 99.837483,132.60909 v -0.75516 c 0,-0.11438 -0.04,-0.20947 -0.11989,-0.28939 -0.0799,-0.0799 -0.17638,-0.11851 -0.29076,-0.11851 -0.11576,0 -0.21222,0.0386 -0.29215,0.11851 -0.0813,0.0799 -0.11989,0.17501 -0.11989,0.28939 v 2.90352 c 0,0.11438 0.0386,0.20947 0.11989,0.28939 0.0799,0.0799 0.17639,0.11851 0.29215,0.11851 0.11438,0 0.21084,-0.0386 0.29076,-0.11851 0.0799,-0.0799 0.11989,-0.17501 0.11989,-0.28939 v -0.69591 h 0.518137 v 0.69591 c 0,0.13092 -0.0234,0.25218 -0.0717,0.36518 -0.0482,0.11438 -0.11437,0.21222 -0.19843,0.29766 -0.0841,0.0854 -0.183277,0.15158 -0.296277,0.19981 -0.113,0.0482 -0.23289,0.0717 -0.36242,0.0717 -0.13092,0 -0.25219,-0.0234 -0.3638,-0.0717 -0.11301,-0.0482 -0.21223,-0.11437 -0.29629,-0.19981 -0.0854,-0.0854 -0.15158,-0.18328 -0.19843,-0.29766 -0.0482,-0.113 -0.073,-0.23426 -0.073,-0.36518 v -2.90352 c 0,-0.13092 0.0248,-0.25219 0.073,-0.36519 0.0469,-0.11437 0.113,-0.21359 0.19843,-0.29765 0.0841,-0.0854 0.18328,-0.15159 0.29629,-0.19981 0.11161,-0.0482 0.23288,-0.0717 0.3638,-0.0717 0.12953,0 0.24942,0.0234 0.36242,0.0717 0.113,0.0482 0.212217,0.11437 0.296277,0.19981 0.0841,0.0841 0.15021,0.18328 0.19843,0.29765 0.0482,0.113 0.0717,0.23427 0.0717,0.36519 v 0.75516 z m 0,0"
       id="path8494" />
    <path
       inkscape:connector-curvature="0"
       style="fill:#286199;fill-opacity:1;fill-rule:nonzero;stroke:none;stroke-width:0.35277778"
       d="m 102.45438,131.85393 c 0,-0.11438 -0.0413,-0.20947 -0.12127,-0.28939 -0.0799,-0.0786 -0.17639,-0.11851 -0.29077,-0.11851 -0.11437,0 -0.21221,0.04 -0.29214,0.11851 -0.0799,0.0799 -0.11989,0.17501 -0.11989,0.28939 v 2.9049 c 0,0.113 0.04,0.20946 0.11989,0.28801 0.0799,0.0799 0.17777,0.11851 0.29214,0.11851 0.11438,0 0.21085,-0.0386 0.29077,-0.11851 0.0799,-0.0786 0.12127,-0.17501 0.12127,-0.28801 z m 0.51676,2.9049 c 0,0.12954 -0.0234,0.2508 -0.0717,0.3638 -0.0469,0.11438 -0.113,0.2136 -0.19844,0.29766 -0.0841,0.0854 -0.18328,0.15158 -0.2949,0.19981 -0.113,0.0482 -0.23426,0.0717 -0.3638,0.0717 -0.12954,0 -0.2508,-0.0234 -0.3638,-0.0717 -0.113,-0.0482 -0.21222,-0.11437 -0.29628,-0.19981 -0.0841,-0.0841 -0.15021,-0.18328 -0.19844,-0.29766 -0.0482,-0.113 -0.0717,-0.23426 -0.0717,-0.3638 v -2.9049 c 0,-0.13092 0.0234,-0.25219 0.0717,-0.36519 0.0482,-0.11437 0.11438,-0.21221 0.19844,-0.29765 0.0841,-0.0854 0.18328,-0.15159 0.29628,-0.19981 0.113,-0.0482 0.23426,-0.0717 0.3638,-0.0717 0.12954,0 0.2508,0.0234 0.3638,0.0717 0.11162,0.0482 0.21084,0.11437 0.2949,0.19981 0.0854,0.0854 0.15158,0.18328 0.19844,0.29765 0.0482,0.113 0.0717,0.23427 0.0717,0.36519 z m 0,0"
       id="path8496" />
    <path
       inkscape:connector-curvature="0"
       style="fill:#286199;fill-opacity:1;fill-rule:nonzero;stroke:none;stroke-width:0.35277778"
       d="m 104.24583,135.63251 h -0.51815 v -6.6325 h 0.51815 z m 0,0"
       id="path8498" />
    <path
       inkscape:connector-curvature="0"
       style="fill:#286199;fill-opacity:1;fill-rule:nonzero;stroke:none;stroke-width:0.35277778"
       d="m 105.52051,134.75745 c 0,0.11438 0.0386,0.20947 0.11989,0.28939 0.0799,0.0799 0.17639,0.11851 0.29077,0.11851 0.11575,0 0.21222,-0.0386 0.29214,-0.11851 0.0799,-0.0799 0.11989,-0.17501 0.11989,-0.28939 v -1.39182 c 0,-0.113 -0.04,-0.20946 -0.11989,-0.28939 -0.0799,-0.0785 -0.17639,-0.11851 -0.29214,-0.11851 -0.11438,0 -0.21084,0.04 -0.29077,0.11851 -0.0813,0.0799 -0.11989,0.17639 -0.11989,0.28939 z m 0.82269,0.84199 c -0.062,0.0276 -0.1254,0.051 -0.19017,0.0675 -0.0661,0.0165 -0.1378,0.0248 -0.21773,0.0248 -0.12953,0 -0.2508,-0.0234 -0.36518,-0.0717 -0.113,-0.0482 -0.21222,-0.11438 -0.29628,-0.19982 -0.0854,-0.0854 -0.15158,-0.18328 -0.19981,-0.29766 -0.0482,-0.113 -0.073,-0.23426 -0.073,-0.36518 v -1.39182 c 0,-0.13091 0.0248,-0.25218 0.073,-0.36518 0.0482,-0.11299 0.11438,-0.21359 0.19981,-0.29765 0.0841,-0.0854 0.18328,-0.15159 0.29628,-0.19982 0.11438,-0.0482 0.23565,-0.0717 0.36518,-0.0717 0.0799,0 0.15572,0.01 0.226,0.0289 0.0703,0.0207 0.13091,0.0413 0.1819,0.0634 v -0.66972 c 0,-0.11438 -0.04,-0.20947 -0.11989,-0.28939 -0.0799,-0.0785 -0.17639,-0.11851 -0.29214,-0.11851 -0.11438,0 -0.21084,0.04 -0.29077,0.11851 -0.0813,0.0799 -0.11989,0.17501 -0.11989,0.28939 v 0.22875 h -0.51952 v -0.22875 c 0,-0.13092 0.0248,-0.25219 0.073,-0.36519 0.0482,-0.11437 0.113,-0.21359 0.19844,-0.29765 0.0841,-0.0854 0.18328,-0.15159 0.29628,-0.19982 0.113,-0.0482 0.23289,-0.0717 0.36242,-0.0717 0.12954,0 0.2508,0.0234 0.3638,0.0717 0.113,0.0482 0.21222,0.11438 0.29628,0.19982 0.0841,0.0841 0.15021,0.18328 0.19844,0.29765 0.0482,0.113 0.0717,0.23427 0.0717,0.36519 v 3.77858 h -0.51814 z m 0,0"
       id="path8500" />
    <path
       inkscape:connector-curvature="0"
       style="fill:#286199;fill-opacity:1;fill-rule:nonzero;stroke:none;stroke-width:0.35277778"
       d="m 108.83883,131.56454 c -0.0799,-0.0786 -0.17639,-0.11851 -0.29077,-0.11851 -0.11437,0 -0.21222,0.04 -0.29214,0.11851 -0.0799,0.0799 -0.11989,0.17639 -0.11989,0.28939 v 2.90352 c 0,0.11438 0.04,0.20947 0.11989,0.28939 0.0799,0.0799 0.17777,0.11851 0.29214,0.11851 0.11438,0 0.21084,-0.0386 0.29077,-0.11851 0.0799,-0.0799 0.12126,-0.17501 0.12126,-0.28939 v -2.90352 c 0,-0.113 -0.0413,-0.20947 -0.12126,-0.28939 m -0.5209,-0.61599 c 0.0703,-0.0193 0.14607,-0.0289 0.226,-0.0289 0.12953,0 0.2508,0.0234 0.36518,0.0717 0.113,0.0482 0.21222,0.11438 0.29628,0.19982 0.0854,0.0841 0.15158,0.18328 0.19981,0.29765 0.0482,0.113 0.073,0.23427 0.073,0.36519 v 2.90352 c 0,0.13091 -0.0248,0.25218 -0.073,0.36518 -0.0482,0.11438 -0.11438,0.21222 -0.19981,0.29766 -0.0841,0.0854 -0.18328,0.15158 -0.29628,0.19981 -0.11438,0.0482 -0.23565,0.073 -0.36518,0.073 -0.0799,0 -0.15159,-0.01 -0.21773,-0.0262 -0.0648,-0.0165 -0.12816,-0.04 -0.19017,-0.0675 v 0.0331 h -0.51814 v -6.6325 h 0.51814 v 2.01194 c 0.051,-0.022 0.11162,-0.0427 0.1819,-0.0634"
       id="path8502" />
    <path
       inkscape:connector-curvature="0"
       style="fill:#286199;fill-opacity:1;fill-rule:nonzero;stroke:none;stroke-width:0.35277778"
       d="m 110.75154,133.12723 h 0.82407 v -1.2733 c 0,-0.113 -0.04,-0.20947 -0.11989,-0.28939 -0.0813,-0.0786 -0.17776,-0.11851 -0.29214,-0.11851 -0.11438,0 -0.21222,0.04 -0.29215,0.11851 -0.0799,0.0799 -0.11989,0.17639 -0.11989,0.28939 z m -0.51814,-1.2733 c 0,-0.13092 0.0234,-0.25219 0.0717,-0.36656 0.0482,-0.11162 0.11438,-0.21084 0.19844,-0.29628 0.0854,-0.0854 0.18328,-0.15159 0.29628,-0.19981 0.113,-0.0482 0.23427,-0.0717 0.3638,-0.0717 0.12954,0 0.25081,0.0234 0.36381,0.0717 0.11299,0.0482 0.21083,0.11437 0.29627,0.19981 0.0841,0.0854 0.15021,0.18466 0.19844,0.29628 0.0469,0.11437 0.0717,0.23564 0.0717,0.36656 v 1.79971 h -1.34221 v 1.10381 c 0,0.11438 0.04,0.20947 0.11989,0.28939 0.0799,0.0799 0.17776,0.11851 0.29214,0.11851 0.11438,0 0.21084,-0.0386 0.29215,-0.11851 0.0799,-0.0799 0.11989,-0.17501 0.11989,-0.28939 v -0.34726 h 0.51814 v 0.34726 c 0,0.13092 -0.0248,0.25218 -0.0717,0.36656 -0.0482,0.113 -0.11438,0.21222 -0.19844,0.29628 -0.0854,0.0854 -0.18328,0.15158 -0.29627,0.19981 -0.113,0.0482 -0.23427,0.0717 -0.36381,0.0717 -0.12953,0 -0.2508,-0.0234 -0.3638,-0.0717 -0.113,-0.0482 -0.21084,-0.11437 -0.29628,-0.19981 -0.0841,-0.0841 -0.15021,-0.18328 -0.19844,-0.29628 -0.0482,-0.11438 -0.0717,-0.23564 -0.0717,-0.36656 z m 0,0"
       id="path8504" />
    <path
       inkscape:connector-curvature="0"
       style="fill:#286199;fill-opacity:1;fill-rule:nonzero;stroke:none;stroke-width:0.35277778"
       d="m 113.36706,135.63251 h -0.51676 v -6.6325 h 0.51676 z m 0,0"
       id="path8506" />
    <path
       inkscape:connector-curvature="0"
       style="fill:#4fa630;fill-opacity:1;fill-rule:nonzero;stroke:none;stroke-width:0.35277778"
       d="m 97.567853,128.70511 h -1.52135 v -2.30959 h 1.52135 v 0.27285 h -1.21405 v 0.63389 h 1.21405 v 0.27286 h -1.21405 v 0.85714 h 1.21405 z m 0,0"
       id="path8508" />
    <path
       inkscape:connector-curvature="0"
       style="fill:#4fa630;fill-opacity:1;fill-rule:nonzero;stroke:none;stroke-width:0.35277778"
       d="m 99.794763,127.77769 c 0,0.16812 -0.0179,0.31419 -0.0551,0.43822 -0.0372,0.1254 -0.0965,0.22875 -0.18052,0.31143 -0.0799,0.0785 -0.17363,0.13643 -0.27974,0.17226 -0.10611,0.0358 -0.23014,0.0537 -0.37207,0.0537 -0.1447,0 -0.27148,-0.0193 -0.37896,-0.0565 -0.10749,-0.0386 -0.19844,-0.0951 -0.27148,-0.1695 -0.0841,-0.0854 -0.14331,-0.18742 -0.18052,-0.30731 -0.0372,-0.11989 -0.0551,-0.26734 -0.0551,-0.44235 v -1.38217 h 0.3073 v 1.39733 c 0,0.1254 0.008,0.22462 0.0248,0.29628 0.0179,0.073 0.0469,0.13918 0.0868,0.19844 0.0455,0.0662 0.10749,0.11713 0.18466,0.15158 0.0786,0.0331 0.17226,0.051 0.2825,0.051 0.11024,0 0.20533,-0.0165 0.2825,-0.051 0.0772,-0.033 0.13918,-0.0841 0.18603,-0.15158 0.04,-0.0593 0.0689,-0.12678 0.0854,-0.20258 0.0179,-0.0772 0.0262,-0.17087 0.0262,-0.28387 v -1.4056 h 0.30731 z m 0,0"
       id="path8510" />
    <path
       inkscape:connector-curvature="0"
       style="fill:#4fa630;fill-opacity:1;fill-rule:nonzero;stroke:none;stroke-width:0.35277778"
       d="m 106.90268,117.74144 c -0.0689,-0.0372 -0.13918,-0.0703 -0.21359,-0.0992 -0.87505,-0.33487 -1.85484,0.10197 -2.18971,0.97565 -0.33623,0.87367 0.1006,1.85346 0.97428,2.1897 0.0744,0.0289 0.14883,0.051 0.22462,0.0689 0.12127,0.0276 0.22324,-0.0468 0.25218,-0.16812 0.0276,-0.12264 -0.0275,-0.24942 -0.14883,-0.27836 -0.0551,-0.0124 -0.11024,-0.0289 -0.16398,-0.0496 -0.565,-0.21773 -0.87919,-0.80478 -0.77308,-1.37942 l 0.9095,0.34727 c 0.11576,0.0455 0.22738,-0.0138 0.27285,-0.13091 0.0441,-0.11714 0.005,-0.24667 -0.11024,-0.29215 l -0.90813,-0.34864 c 0.30455,-0.49748 0.93156,-0.72347 1.49655,-0.50712 0.0537,0.022 0.11025,0.0427 0.15986,0.0703 0.10886,0.0606 0.22737,0.0165 0.288,-0.0937 0.0593,-0.11024 0.0386,-0.24391 -0.0703,-0.30454"
       id="path8512" />
    <path
       inkscape:connector-curvature="0"
       style="fill:#4fa630;fill-opacity:1;fill-rule:nonzero;stroke:none;stroke-width:0.35277778"
       d="m 104.77775,124.87416 c -0.0579,1.36426 -0.55259,1.03904 -0.48231,3.41616 -0.21498,-1.45934 0.0165,-1.65778 0.35002,-2.94762 -0.37759,1.15617 -0.56913,1.06935 -0.4203,2.99034 -0.0951,0.10335 0.0234,0.51401 -0.34451,0.32659 -0.30317,-0.50436 -0.29215,-1.32705 0.50987,-4.2664 0.0276,-0.12265 0.4203,-0.32935 0.38723,0.48093"
       id="path8514" />
    <path
       inkscape:connector-curvature="0"
       style="fill:#4fa630;fill-opacity:1;fill-rule:nonzero;stroke:none;stroke-width:0.35277778"
       d="m 101.20036,126.45064 c 0.23013,0 0.96739,-0.0978 1.41663,0.21635 0.28249,0.19844 0.52778,0.37345 0.60358,0.49196 0.0661,0.10335 0.10335,0.226 0.1502,0.3197 0.0469,0.0951 -0.32797,0.0951 -0.52779,0.0951 -0.29352,0 -1.15617,-1.1231 -1.64262,-1.1231"
       id="path8516" />
    <path
       inkscape:connector-curvature="0"
       style="fill:#4fa630;fill-opacity:1;fill-rule:nonzero;stroke:none;stroke-width:0.35277778"
       d="m 103.49342,126.18605 c 0.0951,0.1695 0.0758,0.37759 -0.12265,0.2825 -0.24804,-0.11713 -0.63252,-0.2825 -0.81166,-0.39549 -0.96601,-0.61048 -2.30132,-3.54845 -3.651797,-3.8971 0.24529,-0.01 0.42443,-0.0193 0.62287,0.0193 0.24116,0.0455 3.784087,1.91547 3.963237,3.9908"
       id="path8518" />
    <path
       inkscape:connector-curvature="0"
       style="fill:#4fa630;fill-opacity:1;fill-rule:nonzero;stroke:none;stroke-width:0.35277778"
       d="m 105.30554,126.55399 c -0.73587,-1.00046 1.42489,-2.39641 3.7648,-1.47174 -0.26321,0.0193 -0.74414,-0.01 -0.98943,0.113 0.0744,0.11299 0.59393,0.15158 1.06522,0.18878 -0.1502,-0.0841 -0.2067,-0.13091 -0.339,-0.1502 0.75517,-0.0854 1.1989,0.37758 1.6881,0.5085 -0.25356,0.0193 -0.42444,0.0193 -0.4892,0.0193 0.008,0.0386 0.0275,0.0289 0.0744,0.0854 -0.25494,-0.10473 -1.16031,-0.0386 -1.48139,0.0469 -0.32109,0.0854 -0.51815,0.01 -0.72623,0.0193 0.0372,0.0469 0.0854,0.0565 0.113,0.10335 -0.34865,-0.0854 -1.13275,-0.0193 -1.67018,0.24529 0.0469,-0.0565 0.0937,-0.10335 0.1502,-0.13229 -0.49058,0.113 -1.01837,0.50988 -1.16031,0.42444"
       id="path8520" />
    <path
       inkscape:connector-curvature="0"
       style="fill:#4fa630;fill-opacity:1;fill-rule:nonzero;stroke:none;stroke-width:0.35277778"
       d="m 104.94725,127.52688 c 0,-0.31143 0.64217,-0.42443 0.88746,-0.48093 0.24529,-0.0579 0.76343,-0.21084 1.19751,-0.21773 0.58567,-0.01 1.54754,0.15158 1.983,0.50988 -0.20809,-0.0758 -0.69867,-0.22738 -0.9536,-0.19844 0.0661,0.0469 0.0758,0.0661 0.0854,0.0951 0,0 -0.18053,0 -0.26459,0.0744 0.0661,-0.0193 0.43408,0.0193 0.59393,0.0289 -0.17914,0.0372 -0.75516,0.13229 -0.8778,0.1695 0.0758,0.0289 0.11299,0.0469 0.15985,0.0758 -0.41479,0.0372 -1.37666,0.50023 -1.77354,0.50987 -0.39549,0.01 -1.03766,-0.0193 -1.03766,-0.56637"
       id="path8522" />
    <path
       inkscape:connector-curvature="0"
       style="fill:#286199;fill-opacity:1;fill-rule:nonzero;stroke:none;stroke-width:0.35277778"
       d="m 106.26603,115.30644 0.37069,-0.26871 h -0.45888 l -0.14194,-0.43547 -0.14056,0.43547 h -0.45889 l 0.37069,0.26871 -0.14193,0.43684 0.37069,-0.2701 0.37069,0.2701 z m 0,0"
       id="path8524" />
    <path
       inkscape:connector-curvature="0"
       style="fill:#286199;fill-opacity:1;fill-rule:nonzero;stroke:none;stroke-width:0.35277778"
       d="m 108.34136,115.83561 0.37069,-0.26872 h -0.45751 l -0.14194,-0.43684 -0.14193,0.43684 h -0.45752 l 0.3707,0.26872 -0.14194,0.43546 0.37069,-0.26872 0.37069,0.26872 z m 0,0"
       id="path8526" />
    <path
       inkscape:connector-curvature="0"
       style="fill:#286199;fill-opacity:1;fill-rule:nonzero;stroke:none;stroke-width:0.35277778"
       d="m 109.79519,117.40244 0.37069,-0.2701 h -0.45889 l -0.14056,-0.43546 -0.14193,0.43546 h -0.45889 l 0.37069,0.2701 -0.14056,0.43546 0.37069,-0.26872 0.36932,0.26872 z m 0,0"
       id="path8528" />
    <path
       inkscape:connector-curvature="0"
       style="fill:#286199;fill-opacity:1;fill-rule:nonzero;stroke:none;stroke-width:0.35277778"
       d="m 104.18795,115.83561 0.37069,-0.26872 h -0.45751 l -0.14194,-0.43684 -0.14193,0.43684 h -0.45751 l 0.37069,0.26872 -0.14194,0.43546 0.37069,-0.26872 0.3707,0.26872 z m 0,0"
       id="path8530" />
    <path
       inkscape:connector-curvature="0"
       style="fill:#286199;fill-opacity:1;fill-rule:nonzero;stroke:none;stroke-width:0.35277778"
       d="m 102.7355,117.40244 0.37069,-0.2701 h -0.45889 l -0.14194,-0.43546 -0.14056,0.43546 h -0.45888 l 0.37069,0.2701 -0.14194,0.43546 0.37069,-0.2701 0.3707,0.2701 z m 0,0"
       id="path8532" />
    <path
       inkscape:connector-curvature="0"
       style="fill:#286199;fill-opacity:1;fill-rule:nonzero;stroke:none;stroke-width:0.35277778"
       d="m 110.30506,119.36476 0.37069,-0.26871 h -0.45889 l -0.14193,-0.43684 -0.14056,0.43684 h -0.45889 l 0.37069,0.26871 -0.14193,0.43547 0.37069,-0.26872 0.37069,0.26872 z m 0,0"
       id="path8534" />
    <path
       inkscape:connector-curvature="0"
       style="fill:#286199;fill-opacity:1;fill-rule:nonzero;stroke:none;stroke-width:0.35277778"
       d="m 109.73731,121.40564 0.37069,-0.26872 h -0.45751 l -0.14194,-0.43546 -0.14193,0.43546 h -0.45751 l 0.37069,0.26872 -0.14194,0.43546 0.37069,-0.26872 0.3707,0.26872 z m 0,0"
       id="path8536" />
    <path
       inkscape:connector-curvature="0"
       style="fill:#286199;fill-opacity:1;fill-rule:nonzero;stroke:none;stroke-width:0.35277778"
       d="m 108.23662,122.87049 0.36932,-0.26871 h -0.45751 l -0.14194,-0.43546 -0.14056,0.43546 h -0.45888 l 0.37069,0.26871 -0.14194,0.43546 0.37069,-0.26871 0.3707,0.26871 z m 0,0"
       id="path8538" />
    <path
       inkscape:connector-curvature="0"
       style="fill:#286199;fill-opacity:1;fill-rule:nonzero;stroke:none;stroke-width:0.35277778"
       d="m 102.792,121.40564 0.37069,-0.26872 h -0.45751 l -0.14194,-0.43546 -0.14194,0.43546 h -0.45751 l 0.3707,0.26872 -0.14194,0.43546 0.37069,-0.26872 0.37069,0.26872 z m 0,0"
       id="path8540" />
    <path
       inkscape:connector-curvature="0"
       style="fill:#286199;fill-opacity:1;fill-rule:nonzero;stroke:none;stroke-width:0.35277778"
       d="m 104.29406,122.87049 0.37069,-0.26871 h -0.45889 l -0.14193,-0.43684 -0.14056,0.43684 h -0.45751 l 0.36931,0.26871 -0.14056,0.43546 0.37069,-0.26871 0.3707,0.26871 z m 0,0"
       id="path8542" />
    <path
       inkscape:connector-curvature="0"
       style="fill:#286199;fill-opacity:1;fill-rule:nonzero;stroke:none;stroke-width:0.35277778"
       d="m 102.22562,119.36476 0.37069,-0.26871 h -0.45888 l -0.14194,-0.43684 -0.14056,0.43684 h -0.45751 l 0.36932,0.26871 -0.14056,0.43547 0.37069,-0.26872 0.37069,0.26872 z m 0,0"
       id="path8544" />
    <path
       inkscape:connector-curvature="0"
       style="fill:#286199;fill-opacity:1;fill-rule:nonzero;stroke:none;stroke-width:0.35277778"
       d="m 106.26603,123.46581 0.37069,-0.26872 h -0.45888 l -0.14194,-0.43546 -0.14056,0.43546 h -0.45889 l 0.37069,0.26872 -0.14193,0.43546 0.37069,-0.26872 0.37069,0.26872 z m 0,0"
       id="path8546" />
  </g>
</svg>
