<svg width="1113" height="503" viewBox="0 0 1113 503" fill="none" xmlns="http://www.w3.org/2000/svg">
<path d="M1019.87 418.379C1029.87 418.131 1035.27 399.881 1035.27 399.881C1035.27 399.881 1071.46 402.145 1077.12 378.373C1077.87 375.225 1082.33 128.599 1049.45 60.1246C1046.77 54.5442 1041.47 50.8547 1035.32 50.1266C980.278 43.6008 683.628 29.1564 451.622 55.7505C451.622 55.7505 367.638 77.5412 220.878 180.271C220.878 180.271 121.341 221.024 78.3592 250.456C35.3774 279.888 36.5085 336.489 36.5085 336.489C36.5085 336.489 41.0329 390.825 50.0817 407.805C51.4626 410.397 57.2755 430.125 96.8043 431.003" fill="white"/>
<path d="M1077.72 345.17H909.089V359.705C909.089 392.169 935.385 418.486 967.823 418.486H1024.04C1041.86 418.486 1058.72 410.384 1069.87 396.463L1086.17 376.109L1077.72 345.17Z" fill="black"/>
<path d="M225.603 359.357H56.9679V405.331L92.4989 431.003H200.116L234.049 391.687L225.603 359.357Z" fill="black"/>
<path d="M219.872 468.068C249.857 468.068 274.164 443.741 274.164 413.731C274.164 383.722 249.857 359.395 219.872 359.395C189.886 359.395 165.579 383.722 165.579 413.731C165.579 443.741 189.886 468.068 219.872 468.068Z" fill="#9B9B9A"/>
<path d="M909.089 468.068C939.074 468.068 963.382 443.741 963.382 413.731C963.382 383.722 939.074 359.395 909.089 359.395C879.104 359.395 854.796 383.722 854.796 413.731C854.796 443.741 879.104 468.068 909.089 468.068Z" fill="#9B9B9A"/>
<path d="M523.636 94.6156V215.364L267.253 222.533C267.253 222.533 392.428 79.5227 523.636 94.6156Z" fill="black"/>
<path d="M170.697 287.292C170.697 287.292 172.244 267.766 147.36 265.502C122.476 263.238 76.8155 287.292 74.271 293.802C71.7264 300.311 67.9567 319.753 79.36 323.234C90.7651 326.715 170.697 287.292 170.697 287.292Z" fill="#D0CFCE"/>
<path d="M153.508 285.7C153.508 285.7 117.951 315.745 88.7816 320.432Z" fill="#D0CFCE"/>
<path d="M323.068 413.183C472.709 411.864 638.237 408.396 781.554 405.331" stroke="black" stroke-width="22.2222" stroke-miterlimit="10" stroke-linecap="round" stroke-linejoin="round"/>
<path d="M219.872 468.068C249.857 468.068 274.164 443.741 274.164 413.731C274.164 383.722 249.857 359.395 219.872 359.395C189.886 359.395 165.579 383.722 165.579 413.731C165.579 443.741 189.886 468.068 219.872 468.068Z" stroke="black" stroke-width="22.2222" stroke-miterlimit="10"/>
<path d="M909.089 468.068C939.074 468.068 963.382 443.741 963.382 413.731C963.382 383.722 939.074 359.395 909.089 359.395C879.104 359.395 854.796 383.722 854.796 413.731C854.796 443.741 879.104 468.068 909.089 468.068Z" stroke="black" stroke-width="22.2222" stroke-miterlimit="10"/>
<path d="M523.636 112.728V215.364L280.826 231.967" stroke="black" stroke-width="22.2222" stroke-miterlimit="10" stroke-linecap="round" stroke-linejoin="round"/>
<path d="M345.675 348.185L798.115 330.073" stroke="black" stroke-width="22.2222" stroke-miterlimit="10" stroke-linecap="round" stroke-linejoin="round"/>
<path d="M153.508 285.7C153.508 285.7 117.951 315.745 88.7816 320.432" stroke="black" stroke-width="22.2222" stroke-miterlimit="10" stroke-linecap="round" stroke-linejoin="round"/>
<path d="M1019.87 400.267C1029.87 400.019 1035.27 399.881 1035.27 399.881C1035.27 399.881 1071.46 402.145 1077.12 378.373C1077.87 375.225 1082.33 128.599 1049.45 60.1246C1046.77 54.5442 1041.47 50.8547 1035.32 50.1266C980.278 43.6008 683.628 29.1564 451.622 55.7505C451.622 55.7505 367.638 77.5412 220.878 180.271C220.878 180.271 121.341 221.024 78.3592 250.456C35.3774 279.888 36.5085 336.489 36.5085 336.489C36.5085 336.489 41.0329 390.825 50.0817 407.805C51.4626 410.397 57.2755 412.013 96.8043 412.891" stroke="black" stroke-width="22.2222" stroke-miterlimit="10" stroke-linecap="round" stroke-linejoin="round"/>
<g clip-path="url(#clip0_2_77)">
<path d="M641.888 123.866H651.549L656.765 124.637L661.789 125.792L666.426 127.333L669.904 128.874L672.996 130.414L676.281 132.34L679.372 134.459L682.463 136.963L684.396 138.696L688.26 142.548L689.999 144.666L692.124 147.555L694.057 150.444L696.568 155.066L698.694 160.074L700.046 164.118L701.206 169.126L701.785 172.592L701.979 174.903V184.34L701.592 188.192L700.433 193.777L699.08 198.4L697.148 203.022L695.602 206.296L693.284 210.148L691.158 213.229L689.033 215.926L686.714 218.429L683.043 222.089L680.338 224.207L678.019 225.94L674.348 228.252L671.257 229.985L667.779 231.526L663.721 233.066L657.925 234.607L653.288 235.377L651.549 235.57H641.694L635.511 234.607L631.647 233.644L627.01 232.103L622.952 230.37L618.895 228.252L615.03 225.748L612.712 224.014L610.586 222.281L608.075 219.97L605.756 217.659L602.278 213.422L600.153 210.34L598.414 207.452L596.288 203.407L594.356 198.592L593.003 194.355L592.037 189.926L591.458 186.459L591.265 184.533V174.711L592.037 169.511L593.003 165.081L594.356 160.844L595.902 156.992L598.027 152.563L600.732 148.133L602.471 145.822L604.017 143.896L606.336 141.2L609.62 137.926L611.746 136.192L614.451 134.074L617.349 132.148L621.407 129.837L625.464 127.911L630.295 126.177L634.739 125.022L637.83 124.444L641.888 123.866Z" fill="#010101"/>
<path d="M715.697 127.141H757.046V138.696L752.215 138.889L754.341 151.985L756.466 165.274L758.785 179.718L759.944 186.652L760.524 190.311V191.081H765.161V202.444H739.656V191.081H744.1L743.327 184.533L742.361 177.407L730.382 177.215L730.188 180.104L728.836 191.081H733.28V202.444H707.582V191.081H712.606L712.799 188.385L713.572 183.378L715.697 169.511L717.05 160.652L720.141 139.852L720.334 138.889L715.697 138.696V127.141ZM735.598 136.578L735.212 137.541L732.507 160.459L731.734 166.815V167.778H741.202L739.656 155.066L737.917 141.2L737.337 136.77L737.144 136.578H735.598Z" fill="#020202"/>
<path d="M854.041 127.141H904.278L904.471 127.333V151.022L904.278 151.215H890.946V138.696L878.387 138.889V158.148L888.048 158.341L888.241 158.533V169.511L888.048 169.704L878.387 169.896V190.889L890.946 191.081V177.985L891.139 177.792H904.278L904.471 177.985V202.252L904.278 202.444H854.041V191.081H860.417V138.696H854.041V127.141Z" fill="#040404"/>
<path d="M644.206 128.489H649.23L652.901 128.874L656.765 129.452L660.63 130.415L664.687 131.763L668.745 133.496L672.609 135.615L673.962 136.578L673.575 136.963L671.836 137.733L671.643 144.666L676.474 141.97L678.599 141.007L679.758 140.815L679.952 141.2L678.599 144.666L677.826 148.904V151.407L678.599 156.029L677.633 155.644L675.121 154.104L671.643 152.563L668.938 151.792L667.779 151.6H663.915L662.369 151.985L660.437 152.178H649.616L648.65 151.985L649.81 150.252L652.321 146.978L653.481 145.244V144.281L652.128 142.933L650.003 141.2L647.877 139.659L646.332 138.889L645.559 139.274L642.854 142.933L640.535 146.207L638.023 149.866L637.057 151.407H633.966L624.112 150.829H618.895L617.156 151.792L614.451 154.104L612.132 156.415L610.78 157.955L608.654 160.652L606.722 163.541L605.176 166.815L604.597 168.548L604.403 169.704V172.785L604.983 175.289L606.336 178.37L608.074 181.452L610.2 184.148L613.291 187.229L615.803 188.963L618.122 190.118L620.44 190.696L622.179 190.889H625.271L627.396 190.311L627.59 190.118L627.783 185.881L624.112 186.266L622.373 186.844H621.793L621.6 183.57L621.02 180.489L620.054 177.985L618.701 175.866L616.963 174.518L614.837 173.748L614.257 173.363L618.315 171.052L621.986 168.933L624.305 167.392L626.237 165.852L626.817 165.274L627.396 167.007L628.749 173.17L630.295 178.37L631.84 182.222L633.386 185.304L635.125 188L636.671 189.926L639.183 192.429L636.091 195.511L634.545 196.859L631.454 199.941L629.908 201.289L628.556 202.829L624.498 206.874L623.145 208.415L621.02 210.726L619.281 212.844L616.963 215.733L614.644 219.007L613.871 218.815L611.552 216.696L608.461 213.615L606.915 211.689L604.403 208.222L602.085 204.37L600.539 201.289L598.993 197.629L597.641 193.392L596.675 189.155L596.095 185.496L595.902 182.607V177.022L596.288 172.592L597.254 167.585L598.414 163.541L599.766 159.881L602.085 155.066L604.017 151.792L606.336 148.518L609.041 145.244L613.098 141.2L615.224 139.466L617.735 137.541L620.827 135.615L623.532 134.074L627.203 132.341L630.681 130.992L636.478 129.452L641.501 128.681L644.206 128.489Z" fill="#DAE75F"/>
<path d="M828.343 125.985H830.275L832.594 126.37L834.913 127.333L837.231 129.066L838.584 130.415L839.743 131.955L840.129 132.148V127.141H852.109V152.755H840.129L839.936 152.563L839.357 147.363L838.39 143.511L837.038 140.815L835.492 139.466L834.719 139.081H832.207L830.662 140.044L829.696 141.97L829.116 144.281L828.73 148.133L828.343 157.955V169.511L828.73 179.718L829.116 183.955L829.889 187.229L831.048 189.541L832.594 190.504L833.174 190.696H835.106L836.652 190.118L837.811 188.77L838.584 187.229L839.357 184.726L840.129 180.104L840.516 175.866L842.062 176.059L849.017 178.178L854.041 179.718L854.234 179.911V181.837L853.461 185.689L851.916 190.311L850.37 193.392L849.017 195.511L846.892 198.015L844.767 199.941L842.062 201.674L839.743 202.637L837.038 203.407L833.946 203.792H832.207L828.343 203.215L825.058 202.059L821.967 200.326L820.035 198.785L817.33 196.089L815.784 193.97L814.238 191.466L812.499 187.807L810.76 182.607L809.601 177.407L808.828 171.052L808.635 168.163V159.496L809.215 152.948L810.181 147.555L811.34 143.318L812.886 139.081L814.818 135.422L816.75 132.726L818.489 130.8L819.842 129.452L822.547 127.718L824.672 126.755L826.797 126.178L828.343 125.985Z" fill="#030303"/>
<path d="M781.778 125.985H783.517L786.608 126.563L789.12 127.911L791.438 130.029L792.984 131.763V132.148H793.371V127.141H805.35V152.755H793.371L792.598 146.978L791.632 143.318L790.472 141.007L789.506 139.852L787.961 139.081H785.449L784.289 139.852L783.517 140.815L782.937 142.355L782.357 144.666L781.971 148.711L781.778 152.755V174.711L782.164 181.452L782.744 185.496L783.517 188L784.483 189.541V189.926L785.449 190.311L786.801 190.696H788.54L790.086 189.926H790.472L792.018 186.844L792.791 184.148L793.564 178.948L793.757 176.059L794.723 175.866L800.52 177.6L806.123 179.333L807.669 179.911L807.282 183.378L806.316 187.229L804.964 190.889L803.032 194.548L801.099 197.052L798.588 199.555L796.655 200.904L793.564 202.444L791.245 203.215L787.381 203.792H785.642L781.584 203.215L778.3 202.059L775.595 200.518L773.083 198.592L770.957 196.474L768.832 193.585L767.093 190.504L765.74 187.615L764.195 182.992L763.229 178.948L762.456 174.133L762.069 170.089L761.876 165.466V162.192L762.069 157.57L762.842 150.829L763.615 146.978L764.968 142.355L766.513 138.504L768.252 135.229L770.184 132.533L772.31 130.222L774.822 128.296L777.913 126.755L780.039 126.178L781.778 125.985Z" fill="#020202"/>
<path d="M919.349 126.563H923.213L926.691 127.333L929.203 128.681L931.135 130.222L932.681 131.378V127.333L932.874 127.141H944.081V150.059H932.874L932.488 145.244L931.715 141.778L930.749 140.044L929.203 138.696L927.271 138.118H925.725L923.793 138.889L922.827 139.852L922.247 140.815L921.861 142.548V144.474L922.634 147.555L923.793 149.674L925.918 151.985L927.657 153.718L929.783 155.452L932.294 157.763L932.874 158.148V158.533L933.647 158.918L937.511 162.77L939.25 164.889L941.183 167.392L942.921 170.281L944.274 173.17L945.24 176.252L945.82 179.333V186.074L945.047 189.926L943.888 193.007L942.728 195.318L940.989 197.629L938.671 199.941L936.352 201.481L934.033 202.444L931.715 203.022L930.362 203.215H927.657L925.532 202.829L923.6 202.252L920.701 200.711L917.996 198.4L917.61 198.207L917.803 202.252L917.61 202.444H906.403L906.21 202.059L906.403 177.985H917.61L917.803 181.837L918.383 186.074L919.349 188.578L920.508 190.118L921.861 191.081L923.213 191.466H924.952L926.691 190.889L927.85 190.118L928.817 188.578L929.396 186.652L929.589 183.763L929.203 181.452L928.43 179.333L927.271 177.215L925.145 174.518L923.02 172.207L921.474 170.859L919.735 169.126L918.19 167.778L913.359 162.963L911.62 160.844L909.495 157.955L907.563 154.296L906.403 150.829L905.824 147.941L905.63 144.089L906.017 140.044L906.983 136.77L908.529 133.496L910.268 131.185L911.813 129.837L913.359 128.681L916.064 127.333L919.349 126.563Z" fill="#030303"/>
<path d="M960.504 126.563H964.369L967.847 127.333L970.745 128.874L972.677 130.607L974.03 131.57V127.141H985.236V150.059H974.03L973.643 145.052L972.87 141.778L971.904 140.044L970.938 139.081L969.392 138.311L968.426 138.118H967.074L965.335 138.696L964.369 139.274L963.403 140.815L963.016 142.741V144.281L963.403 146.592L964.948 149.674L967.074 151.985L968.62 153.526L970.165 154.874L972.87 157.185L975.382 159.496L978.86 162.963L980.599 165.081L982.724 167.97L984.27 170.666L985.43 173.17L986.396 176.252L986.975 179.141V186.459L986.009 190.696L985.043 193.2L983.497 195.896L982.145 197.629L981.179 198.785L978.474 200.903L975.769 202.252L973.064 203.022L971.518 203.215H968.813L966.687 202.829L964.369 202.059L962.243 200.903L960.311 199.363L958.765 198.207L958.959 202.252L958.765 202.444H947.559V177.985H958.765L959.152 183.763L959.732 186.459L960.504 188.578L961.664 190.118L963.209 191.081L964.562 191.466H966.108L967.847 190.889L969.006 190.118L969.972 188.578L970.552 186.652V182.029L969.586 179.141L967.847 176.444L966.108 174.326L965.528 173.748V173.363L964.948 173.17L963.789 171.822L962.243 170.474L960.698 168.933L959.152 167.585L954.515 162.963L952.776 160.844L950.843 158.148L948.911 154.681L947.752 151.6L946.979 147.941V141.392L947.752 137.926L948.911 135.037L950.264 132.726L952.196 130.415L954.515 128.681L957.22 127.333L960.504 126.563Z" fill="#030303"/>
<path d="M687.101 149.096L688.067 150.059L689.999 152.948L691.931 156.415L693.477 159.689L695.409 165.081L696.375 168.933L697.148 173.748L697.341 175.866V183.57L696.762 188.385L695.989 192.237L694.443 197.244L693.284 200.133L691.158 204.563L688.646 208.607L685.941 212.266L683.236 215.155L681.304 217.274L679.758 218.622L676.667 221.126L673.769 223.052L670.87 224.785L667.779 226.326L664.108 227.866L660.05 229.215L658.311 229.6L657.538 229.407L659.857 227.289L665.654 221.511L667.006 219.97L668.938 218.044L670.677 215.926L671.45 214.77L671.643 214.192V212.844L669.325 208.222L667.392 204.563L663.528 197.052L661.596 193.392L658.891 188.192L656.572 183.955L653.867 178.948L652.128 176.252L651.742 175.481L653.481 173.363L655.799 170.859L657.538 168.741L660.05 165.466L660.823 164.696L664.494 165.659L669.711 166.622L674.155 167.007H678.406L681.497 166.622L683.816 165.852L685.555 164.696L686.714 162.77L687.487 159.496L687.68 157.378V154.489L687.294 150.829L687.101 149.096Z" fill="#DAE75F"/>
<path d="M647.105 206.104L649.23 207.452L651.935 209.378L655.027 211.304L655.993 211.881L654.833 213.422L652.901 215.926L650.389 219.97L648.844 223.052L647.298 226.518L646.332 229.792L645.945 230.755L645.752 230.948L641.694 230.755L636.478 229.985L631.454 228.637L628.169 227.481L623.532 225.363L623.725 224.785L627.01 222.474L630.681 219.778L634.739 216.696L637.83 214.385L640.922 211.881L643.433 209.763L645.366 208.029L647.105 206.104Z" fill="#DAE75F"/>
<path d="M880.319 211.881H892.685L892.878 212.074V214.963L892.685 215.348L891.526 215.541L892.298 220.933L893.458 227.674L893.844 230.37L894.037 230.755H895.003L895.197 230.948V234.415H887.661L887.468 234.222V230.948L888.434 230.755L888.82 230.948L888.434 228.252V226.904H884.763L884.57 230.178L884.376 230.948L885.343 230.755L885.729 230.948V234.222L885.536 234.415H878V230.948L878.966 230.755H879.353L880.899 220.548L881.671 215.348H880.319V211.881ZM886.309 214.77L885.343 222.474V223.822H887.854L887.661 221.126L886.888 214.963L886.309 214.77Z" fill="#0C0C0C"/>
<path d="M709.128 211.881H721.494V215.348H720.141L721.88 226.133L722.653 230.755L724.005 230.948V234.222L723.812 234.415H716.47L716.083 234.222V231.141L716.856 230.755L717.436 230.948L717.05 226.904H713.572L713.185 230.948L713.958 230.755L714.345 230.948V234.222L714.151 234.415H706.809L706.616 234.222V230.948L707.968 230.755L708.355 228.637L709.514 220.741L710.287 215.926V215.541L709.128 215.348V211.881ZM715.117 214.77L714.924 214.963L713.958 223.244V223.822H716.663L716.277 220.548L715.697 215.733L715.504 214.77H715.117Z" fill="#0D0D0D"/>
<path d="M910.461 211.881H917.03L917.996 214L919.735 218.815L921.281 224.207V215.541L919.929 215.155V212.074L920.122 211.881H926.112V215.155L925.918 215.348H924.759V234.607H920.701L919.929 233.066L917.803 227.481L915.678 221.126L915.291 219.778L915.485 230.755L916.451 230.948V234.415H910.654L910.461 234.222V230.948L911.427 230.755L911.813 230.948V215.348H910.461V211.881Z" fill="#080808"/>
<path d="M971.518 211.881H986.589L986.782 212.074V218.815L986.589 219.007H982.531V215.348H978.86L979.053 220.933L981.758 221.126L981.952 221.318V224.4L981.758 224.592H978.86L979.053 230.755H982.338L982.531 227.096L982.724 226.904H986.589L986.782 227.096V234.222L986.396 234.415H971.711L971.518 234.222V230.948L971.711 230.755H973.257L973.45 215.348H971.518V211.881Z" fill="#0D0D0D"/>
<path d="M848.245 211.881H864.089V220.163L863.895 220.355H860.804L860.611 220.163V215.348L859.065 215.541V230.755H860.417L860.804 230.948V234.222L860.611 234.415H851.723V230.948L851.916 230.755H853.268L853.462 215.348H851.723V220.163L851.529 220.355H848.438L848.245 220.163V211.881Z" fill="#0E0E0E"/>
<path d="M947.366 211.496H949.491L951.23 212.652V213.037H951.616V211.881H955.288V219.585H951.616L950.843 216.311L950.457 215.733L949.491 215.541L948.718 216.118L948.525 216.889V228.637L948.911 230.178L949.298 230.563H950.457L951.037 229.792L951.81 226.326L953.549 226.711L955.481 227.289L955.867 227.481V228.829L955.288 230.755L954.128 232.681L952.582 234.029L951.23 234.607L949.105 234.8L947.366 234.415L945.627 233.259L944.081 231.526L942.922 229.022L942.342 226.133L942.149 224.207V221.511L942.535 218.429L943.115 216.118L944.081 214.192L945.82 212.266L947.366 211.496Z" fill="#0D0D0D"/>
<path d="M825.252 211.496L827.184 211.881L828.536 212.844L828.73 211.881H832.208V218.622L832.014 218.815H828.923L828.73 218.622L828.15 215.926L827.57 215.348H826.218L825.638 216.311L825.831 217.852L826.604 219.007L829.696 221.896L831.241 223.629L832.401 225.941L832.787 227.481V229.407L832.014 231.911L830.275 233.837L828.536 234.607H826.797L825.059 233.837L824.479 233.452L824.092 234.415H821.001L820.808 234.222V226.904H824.286L824.672 229.6L825.252 230.563L825.445 230.755H826.797L827.377 230.178L827.57 229.6V228.252L826.797 226.518L822.353 222.089L821.001 219.778L820.615 218.237V215.926L821.194 214.192L821.967 213.037L823.126 212.074L824.092 211.689L825.252 211.496Z" fill="#0B0B0B"/>
<path d="M771.73 211.496L773.662 211.881L775.208 212.844V211.881H778.686V218.622L778.493 218.815H775.401L775.208 218.622L774.822 216.311L774.629 215.541L772.89 215.348L772.31 215.926V217.659L773.083 219.007L775.788 221.511L776.754 222.474L777.913 223.822L778.879 225.748L779.266 227.481V229.407L778.686 231.526L777.527 233.259L776.561 234.029L775.015 234.607H773.276L771.344 233.644L770.764 233.259V234.415H767.479L767.286 234.222V226.904H770.764L771.151 229.407L771.73 230.563L772.117 230.755H773.276L773.856 230.37L774.049 229.792V228.059L773.276 226.518L771.537 224.592L769.991 223.244L768.639 221.704L767.479 219.585L767.093 217.852V216.118L767.673 214.192L768.832 212.652L769.991 211.881L771.73 211.496Z" fill="#0C0C0C"/>
<path d="M743.52 211.496L745.646 211.881L747.192 212.844V211.881H750.67V218.622L750.476 218.815H747.385L746.998 217.659L746.612 215.926L746.032 215.348H744.68L744.1 216.311L744.293 217.852L745.066 219.007L748.158 221.896L749.703 223.629L750.863 225.748L751.249 227.866L751.056 230.37L750.283 232.104L749.51 233.259L747.578 234.415L746.998 234.607H745.259L743.52 233.837L742.748 233.259V234.222L742.554 234.415H739.463L739.27 234.222V226.904H742.748L743.134 229.6L743.907 230.755H745.259L745.839 230.178L746.032 229.6V228.059L745.259 226.518L741.009 222.281L739.656 220.163L739.076 218.429V215.733L739.849 213.807L741.202 212.266L742.554 211.689L743.52 211.496Z" fill="#0B0B0B"/>
<path d="M795.11 211.881H804.964V215.155L804.771 215.348H802.645L802.838 230.755H804.577L804.964 230.948V234.222L804.771 234.415H795.11V230.948L795.303 230.755H796.655L797.042 230.948V215.348H795.11V211.881Z" fill="#0C0C0C"/>
</g>
<defs>
<clipPath id="clip0_2_77">
<rect width="395.711" height="111.808" fill="white" transform="translate(591.265 123.815)"/>
</clipPath>
</defs>
</svg>
