<?xml version="1.0" encoding="UTF-8"?>
<!DOCTYPE svg PUBLIC "-//W3C//DTD SVG 1.1//EN" "http://www.w3.org/Graphics/SVG/1.1/DTD/svg11.dtd">
<svg xmlns="http://www.w3.org/2000/svg" version="1.1" width="100%" height="100%"
    viewBox="50 50 600 600"
    style="shape-rendering:geometricPrecision; text-rendering:geometricPrecision; image-rendering:optimizeQuality; fill-rule:evenodd; clip-rule:evenodd"
    xmlns:xlink="http://www.w3.org/1999/xlink">
    <g>
        <path style="opacity:1" fill="#020202"
            d="M 231.5,126.5 C 226.493,126.751 221.493,127.084 216.5,127.5C 212.997,126.351 211.331,123.851 211.5,120C 211.748,115.586 214.081,113.419 218.5,113.5C 217.536,94.4326 224.036,78.4326 238,65.5C 238.027,69.3856 239.527,72.5523 242.5,75C 245.956,75.8553 248.456,74.6886 250,71.5C 250.112,66.7623 250.278,62.0956 250.5,57.5C 254.063,55.8851 257.73,54.5517 261.5,53.5C 262.442,53.6082 263.275,53.9415 264,54.5C 264.333,59.1667 264.667,63.8333 265,68.5C 268.355,73.3104 272.021,73.6438 276,69.5C 276.066,63.4499 276.232,57.4499 276.5,51.5C 281.091,52.6321 285.758,53.2988 290.5,53.5C 290.334,57.5138 290.501,61.5138 291,65.5C 294.171,70.4141 297.837,70.7475 302,66.5C 302.186,64.0995 302.686,61.7662 303.5,59.5C 319.323,69.1393 328.657,83.1393 331.5,101.5C 339.783,101.718 342.283,105.718 339,113.5C 338.25,114.126 337.416,114.626 336.5,115C 301.483,118.835 266.483,122.668 231.5,126.5 Z" />
    </g>
    <g>
        <path style="opacity:1" fill="#080808"
            d="M 149.5,85.5 C 150.675,85.281 151.675,85.6143 152.5,86.5C 161,100.167 169.5,113.833 178,127.5C 178.591,128.483 178.257,129.15 177,129.5C 173.127,130.27 169.46,131.603 166,133.5C 156.702,120.263 147.868,106.597 139.5,92.5C 142.9,90.1444 146.233,87.8111 149.5,85.5 Z" />
    </g>
    <g>
        <path style="opacity:1" fill="#020202"
            d="M 319.5,122.5 C 324.167,122.5 328.833,122.5 333.5,122.5C 337.672,146.979 330.005,166.812 310.5,182C 294.568,191.783 277.568,194.117 259.5,189C 234.403,179.061 221.736,160.561 221.5,133.5C 254.344,130.132 287.01,126.466 319.5,122.5 Z" />
    </g>
    <g>
        <path style="opacity:1" fill="#b5b5b5"
            d="M 231.5,126.5 C 226.552,128.246 221.552,128.579 216.5,127.5C 221.493,127.084 226.493,126.751 231.5,126.5 Z" />
    </g>
    <g>
        <path style="opacity:1" fill="#010101"
            d="M 200.5,202.5 C 224.263,241.703 248.263,280.703 272.5,319.5C 285.142,341.444 298.309,363.111 312,384.5C 309.645,402.316 316.812,414.149 333.5,420C 335.333,423.167 337.167,426.333 339,429.5C 344.208,489.962 349.042,550.462 353.5,611C 354.867,630.272 346.2,642.272 327.5,647C 303.04,646.871 290.874,634.371 291,609.5C 284.791,535.859 278.957,462.192 273.5,388.5C 267.167,388.5 260.833,388.5 254.5,388.5C 248.758,467.557 242.258,546.557 235,625.5C 227.598,642.452 214.765,649.285 196.5,646C 186.756,642.59 179.923,636.09 176,626.5C 174.503,618.221 174.169,609.888 175,601.5C 181.446,521.48 188.113,441.48 195,361.5C 195.667,316.5 195.667,271.5 195,226.5C 179.903,238.262 166.07,251.428 153.5,266C 136.144,272.985 125.478,267.318 121.5,249C 121.667,247.5 121.833,246 122,244.5C 135.357,211.793 148.691,179.127 162,146.5C 168.113,135.864 176.946,132.698 188.5,137C 199.344,142.862 202.844,151.696 199,163.5C 191.971,179.215 185.805,195.215 180.5,211.5C 182.331,212.052 183.997,212.052 185.5,211.5C 187.801,204.9 190.635,198.566 194,192.5C 195.996,195.986 198.163,199.319 200.5,202.5 Z" />
    </g>
    <g>
        <path style="opacity:1" fill="#070707"
            d="M 277.5,317.5 C 253.654,277.796 229.32,238.462 204.5,199.5C 202.074,194.564 199.407,189.73 196.5,185C 198.285,179.637 200.452,174.47 203,169.5C 242,232.833 281,296.167 320,359.5C 319.297,366.008 317.631,372.342 315,378.5C 302.489,358.139 289.989,337.805 277.5,317.5 Z" />
    </g>
    <g>
        <path style="opacity:1" fill="#505050"
            d="M 231.5,177.5 C 225.974,177.179 220.64,177.512 215.5,178.5C 214.957,178.44 214.624,178.107 214.5,177.5C 220.32,176.184 225.987,176.184 231.5,177.5 Z" />
    </g>
    <g>
        <path style="opacity:1" fill="#020202"
            d="M 231.5,177.5 C 255.499,200.088 282.166,203.588 311.5,188C 315.167,185.167 318.833,182.333 322.5,179.5C 330.521,185.354 337.354,192.354 343,200.5C 363.559,232.393 373.392,267.393 372.5,305.5C 372.136,339.816 366.303,373.149 355,405.5C 348.852,412.993 341.018,415.493 331.5,413C 320.266,407.679 316.1,398.845 319,386.5C 331.546,348.28 334.879,309.28 329,269.5C 326.212,256.292 321.379,243.958 314.5,232.5C 313.167,233.5 311.833,234.5 310.5,235.5C 324.616,263.861 329.783,293.861 326,325.5C 325.01,334.261 323.51,342.928 321.5,351.5C 286.14,293.816 250.806,236.149 215.5,178.5C 220.64,177.512 225.974,177.179 231.5,177.5 Z" />
    </g>
    <g>
        <path style="opacity:1" fill="#eeeeee"
            d="M 204.5,199.5 C 229.32,238.462 253.654,277.796 277.5,317.5C 275.932,319.931 274.432,319.931 273,317.5C 272.536,318.094 272.369,318.761 272.5,319.5C 248.263,280.703 224.263,241.703 200.5,202.5C 201.397,201.402 202.23,201.402 203,202.5C 204.039,201.756 204.539,200.756 204.5,199.5 Z" />
    </g>
    <g>
        <path style="opacity:1" fill="#060606"
            d="M 351.5,415.5 C 353.592,415.561 355.092,416.561 356,418.5C 380.167,458.167 404.333,497.833 428.5,537.5C 429.365,538.583 430.365,538.749 431.5,538C 444.433,530.286 457.266,522.452 470,514.5C 473.404,518.964 476.57,523.63 479.5,528.5C 448.704,548.07 417.704,567.403 386.5,586.5C 383.286,581.789 380.286,576.956 377.5,572C 377.833,571.5 378.167,571 378.5,570.5C 391.633,562.531 404.633,554.364 417.5,546C 392,504.5 366.5,463 341,421.5C 340.409,420.517 340.743,419.85 342,419.5C 345.611,418.986 348.778,417.653 351.5,415.5 Z" />
    </g>
    <g>
        <path style="opacity:1" fill="#161616"
            d="M 432.5,476.5 C 438.643,477.026 439.976,479.86 436.5,485C 429,485.196 427.667,482.363 432.5,476.5 Z" />
    </g>
    <g>
        <path style="opacity:1" fill="#0a0a0a"
            d="M 444.5,482.5 C 455.06,481.719 459.06,486.385 456.5,496.5C 453.315,493.825 449.815,493.159 446,494.5C 444.004,492.339 441.838,490.339 439.5,488.5C 440.497,485.845 442.164,483.845 444.5,482.5 Z" />
    </g>
    <g>
        <path style="opacity:1" fill="#090909"
            d="M 432.5,490.5 C 439.809,489.981 443.976,493.314 445,500.5C 445.49,499.207 445.657,497.873 445.5,496.5C 452.547,495.349 456.88,498.182 458.5,505C 457.609,512.231 453.609,515.231 446.5,514C 443.689,512.356 441.356,510.19 439.5,507.5C 431.945,509.798 427.612,506.965 426.5,499C 427.174,495.17 429.174,492.336 432.5,490.5 Z" />
    </g>
    <g>
        <path style="opacity:1" fill="#0f0f0f"
            d="M 520.5,517.5 C 527.158,516.344 529.158,518.844 526.5,525C 519.75,526.469 517.75,523.969 520.5,517.5 Z" />
    </g>
    <g>
        <path style="opacity:1" fill="#030303"
            d="M 479.5,536.5 C 480.922,536.709 482.255,537.209 483.5,538C 495.833,547.833 508.167,557.667 520.5,567.5C 518.044,569.567 515.378,571.401 512.5,573C 511.5,573.667 510.5,573.667 509.5,573C 499.324,565.112 488.991,557.778 478.5,551C 485.693,559.226 492.527,567.726 499,576.5C 499.982,577.759 500.315,579.092 500,580.5C 467.584,600.625 435.084,620.625 402.5,640.5C 398.722,624.443 395.389,608.277 392.5,592C 392.833,591.167 393.167,590.333 393.5,589.5C 422.231,571.808 450.897,554.141 479.5,536.5 Z" />
    </g>
    <g>
        <path style="opacity:1" fill="#141414"
            d="M 542.5,537.5 C 548.643,538.026 549.976,540.86 546.5,546C 541.333,546.833 539.167,544.667 540,539.5C 540.995,538.934 541.828,538.267 542.5,537.5 Z" />
    </g>
    <g>
        <path style="opacity:1" fill="#080808"
            d="M 530.5,547.5 C 541.738,548.157 544.738,553.323 539.5,563C 541.047,563.333 542.38,562.833 543.5,561.5C 548.188,564.213 549.688,568.213 548,573.5C 545.103,578.155 540.937,579.655 535.5,578C 531.142,575.135 529.809,571.302 531.5,566.5C 525.3,563.765 523.134,559.099 525,552.5C 526.73,550.598 528.563,548.931 530.5,547.5 Z" />
    </g>
    <g>
        <path style="opacity:1" fill="#101010"
            d="M 544.5,549.5 C 554.428,549.024 558.595,553.69 557,563.5C 555.316,565.351 553.483,567.018 551.5,568.5C 549.945,564.278 547.278,560.945 543.5,558.5C 544.184,555.425 544.517,552.425 544.5,549.5 Z" />
    </g>
    <g>
        <path style="opacity:1" fill="#131313"
            d="M 570.5,559.5 C 575.796,559.611 577.796,562.111 576.5,567C 568.839,569.168 566.839,566.668 570.5,559.5 Z" />
    </g>
    <g>
        <path style="opacity:1" fill="#0e0e0e"
            d="M 543.5,590.5 C 550.896,590.615 552.23,593.448 547.5,599C 544.702,599.561 542.869,598.394 542,595.5C 541.387,593.505 541.887,591.838 543.5,590.5 Z" />
    </g>
    <g>
        <path style="opacity:1" fill="#121212"
            d="M 510.5,604.5 C 512.833,604.5 515.167,604.5 517.5,604.5C 518.491,609.173 516.824,612.506 512.5,614.5C 506.959,611.727 506.293,608.394 510.5,604.5 Z" />
    </g>
    <g>
        <path style="opacity:1" fill="#151515"
            d="M 496.5,612.5 C 498.117,613.038 499.784,613.371 501.5,613.5C 502.517,617.781 500.85,620.114 496.5,620.5C 495.264,619.754 493.93,619.421 492.5,619.5C 492.127,616.068 493.46,613.734 496.5,612.5 Z" />
    </g>
    <g>
        <path style="opacity:1" fill="#070707"
            d="M 519.5,618.5 C 520.873,618.343 522.207,618.51 523.5,619C 525.31,621.644 527.31,624.144 529.5,626.5C 525.254,631.991 521.254,637.658 517.5,643.5C 510.858,644.664 504.192,644.831 497.5,644C 489.916,639.784 488.25,633.784 492.5,626C 502.41,626.327 511.41,623.827 519.5,618.5 Z" />
    </g>
    <g>
        <path style="opacity:1" fill="#0d0d0d"
            d="M 546.5,626.5 C 550.762,626.587 553.429,628.754 554.5,633C 552.419,638.044 549.086,641.877 544.5,644.5C 540.604,643.201 536.604,642.534 532.5,642.5C 533.689,638.783 535.189,635.116 537,631.5C 540.174,629.729 543.34,628.063 546.5,626.5 Z" />
    </g>
    <g>
        <path style="opacity:1" fill="#0e0e0e"
            d="M 442.5,628.5 C 445.069,629.396 447.069,631.062 448.5,633.5C 447,635.833 445.5,638.167 444,640.5C 439.588,643.074 435.088,643.074 430.5,640.5C 431.392,637.716 432.558,635.05 434,632.5C 436.876,631.052 439.709,629.719 442.5,628.5 Z" />
    </g>
    <g>
        <path style="opacity:1" fill="#0f0f0f"
            d="M 476.5,628.5 C 479.069,629.396 481.069,631.062 482.5,633.5C 480.167,636.833 477.833,640.167 475.5,643.5C 471.689,642.958 468.022,641.958 464.5,640.5C 465.463,637.717 466.63,635.05 468,632.5C 470.969,631.263 473.803,629.93 476.5,628.5 Z" />
    </g>
    <g>
        <path style="opacity:1" fill="#141414"
            d="M 565.5,635.5 C 568.848,636.012 571.181,637.845 572.5,641C 568.258,645.426 564.924,644.593 562.5,638.5C 563.34,637.265 564.34,636.265 565.5,635.5 Z" />
    </g>
</svg>