<svg xmlns="http://www.w3.org/2000/svg" xmlns:xlink="http://www.w3.org/1999/xlink" id="Calque_1"
    x="0px" y="0px" viewBox="0 0 399.7 537.8" style="enable-background:new 0 0 399.7 537.8;"
    xml:space="preserve"><style type="text/css">	.st0{fill:#FFFFFF;}	.st1{fill:url(#SVGID_1_);}	.st2{fill:url(#SVGID_00000013894444271556460610000012949082939153228475_);}	.st3{fill:url(#SVGID_00000055693073108327046850000000166658279815447739_);}	.st4{fill:#2F3640;}	.st5{fill:#F8B133;}	.st6{fill:#1D203A;}</style><path class="st0" d="M359.3,537.8H40.4C18.2,537.8,0,519.6,0,497.3V79.4C0,35.7,35.7,0,79.4,0h240.9c43.7,0,79.4,35.7,79.4,79.4 v417.9C399.7,519.6,381.5,537.8,359.3,537.8z"></path><g id="Calque_1_00000166658736980476900010000011142636143677015195_">	<g>		<g>							<linearGradient id="SVGID_1_" gradientUnits="userSpaceOnUse" x1="91.2525" y1="306.5364" x2="133.795" y2="372.1839" gradientTransform="matrix(1 0 0 -1 0 538.7636)">				<stop offset="8.529678e-02" style="stop-color:#FF1F48"></stop>				<stop offset="0.4185" style="stop-color:#FB8544"></stop>				<stop offset="0.6654" style="stop-color:#F8CD41"></stop>				<stop offset="0.823" style="stop-color:#F8D941"></stop>				<stop offset="0.8627" style="stop-color:#F8D542"></stop>				<stop offset="0.9027" style="stop-color:#F9C945"></stop>				<stop offset="0.9427" style="stop-color:#FBB54B"></stop>				<stop offset="0.9827" style="stop-color:#FE9953"></stop>				<stop offset="1" style="stop-color:#FF8A57"></stop>			</linearGradient>			<circle class="st1" cx="109.8" cy="203.6" r="21.3"></circle>							<linearGradient id="SVGID_00000181802871411344849360000006333244894760759687_" gradientUnits="userSpaceOnUse" x1="485.4306" y1="403.9236" x2="236.5837" y2="54.9658" gradientTransform="matrix(1 0 0 -1 0 538.7636)">				<stop offset="0" style="stop-color:#F8B133"></stop>				<stop offset="8.723619e-02" style="stop-color:#F8C038"></stop>				<stop offset="0.2608" style="stop-color:#F8D941"></stop>				<stop offset="0.3605" style="stop-color:#99DF76"></stop>				<stop offset="0.4358" style="stop-color:#57E29B"></stop>				<stop offset="0.471" style="stop-color:#3EE4A9"></stop>				<stop offset="0.617" style="stop-color:#3ECDBD"></stop>				<stop offset="0.9219" style="stop-color:#3D92F1"></stop>				<stop offset="1" style="stop-color:#3D82FF"></stop>			</linearGradient>			<path style="fill:url(#SVGID_00000181802871411344849360000006333244894760759687_);" d="M367.5,299.5v1.4l0,0    C367.5,300.4,367.5,300,367.5,299.5z"></path>			<g>									<linearGradient id="SVGID_00000173874612987257010480000015729506917819552645_" gradientUnits="userSpaceOnUse" x1="328.2697" y1="515.4798" x2="79.8795" y2="167.1623" gradientTransform="matrix(1 0 0 -1 0 538.7636)">					<stop offset="3.594243e-02" style="stop-color:#F8B133"></stop>					<stop offset="0.1027" style="stop-color:#F8C93B"></stop>					<stop offset="0.159" style="stop-color:#F8D941"></stop>					<stop offset="0.2256" style="stop-color:#F4D943"></stop>					<stop offset="0.2926" style="stop-color:#E8DA4A"></stop>					<stop offset="0.3598" style="stop-color:#D4DB55"></stop>					<stop offset="0.4273" style="stop-color:#B7DD65"></stop>					<stop offset="0.4949" style="stop-color:#93DF7A"></stop>					<stop offset="0.5617" style="stop-color:#67E292"></stop>					<stop offset="0.6152" style="stop-color:#3EE4A9"></stop>					<stop offset="0.7214" style="stop-color:#3ECDBD"></stop>					<stop offset="0.9432" style="stop-color:#3D92F1"></stop>					<stop offset="1" style="stop-color:#3D82FF"></stop>				</linearGradient>				<path style="fill:url(#SVGID_00000173874612987257010480000015729506917819552645_);" d="M367.1,239.8v59.7c0,0.5,0,1,0,1.4     c-0.4,18.8-8,36.4-21.4,49.6c-13.5,13.2-31.2,20.5-50.1,20.5H103.8c-39.5,0-71.5-32-71.5-71.5V107.7c0-39.5,32.1-71.6,71.5-71.6     h191.7c39.5,0,71.6,32.1,71.6,71.5l-0.2,81.2c0,1.1-1.3,1.7-2.1,1.1l-38.1-25.9c-0.8-0.5-1.2-1.3-1.2-2.3l0.2-54.2     c0-16.6-13.5-30.1-30.1-30.1H103.8c-16.6,0-30.1,13.5-30.1,30.1v191.7c0,16.6,13.5,30.1,30.1,30.1h191.7     c16.6,0,30.1-13.5,30.1-30.1v-49.3c0-0.6-0.3-1.3-0.9-1.7L302.6,233c-0.7-0.5-1.6-0.5-2.3,0l-22.2,15.5c-0.6,0.4-0.9,1-0.9,1.7     v48.7c0,1-0.8,1.7-1.7,1.7h-38.1c-1,0-1.7-0.8-1.7-1.7V184.4c0-0.6-0.3-1.3-0.9-1.7l-22.2-15.5c-0.7-0.5-1.6-0.5-2.3,0     l-22.1,15.5c-0.6,0.4-0.9,1-0.9,1.7v114.5c0,1-0.8,1.7-1.7,1.7h-38.1c-1,0-1.7-0.8-1.7-1.7V174c0-7.8,3.8-15.1,10.1-19.5     l42-29.3c8.2-5.7,19.1-5.7,27.2,0l41.9,29.3c6.3,4.4,10.2,11.7,10.2,19.5v24.3l10.5-7.4c8.2-5.7,19.1-5.7,27.2,0l41.9,29.3     C363.4,224.8,367.1,232.1,367.1,239.8z"></path>			</g>		</g>		<g>			<g>				<path class="st4" d="M49.8,414.1c0,0.8-0.6,1.4-1.4,1.4H35.3v8.1h11.6c0.8,0,1.4,0.6,1.4,1.4s-0.6,1.4-1.4,1.4H35.3v9     c0,0.9-0.7,1.6-1.6,1.6c-0.8,0-1.5-0.7-1.5-1.6v-21.2c0-0.9,0.7-1.6,1.5-1.6h14.7C49.2,412.7,49.8,413.4,49.8,414.1z"></path>			</g>			<g>				<path class="st4" d="M67.6,412.3c-6.9,0-12.3,5.5-12.3,12.4v0.1c0,7.1,5.2,12.4,12.3,12.4c6.9,0,12.3-5.5,12.3-12.4l0,0     C79.8,417.6,74.6,412.3,67.6,412.3z M67.6,434.3c-5.2,0-9.1-4.2-9.1-9.6l0,0c0-5.4,3.9-9.5,9.1-9.5c5.2,0,9.1,4.2,9.1,9.6v0.1     C76.6,430.3,72.8,434.3,67.6,434.3z"></path>			</g>			<g>				<path class="st4" d="M105.2,414.1c0,0.4-0.2,0.8-0.4,1.1l-8.7,12.1v8.2c0,0.9-0.7,1.6-1.6,1.6s-1.6-0.7-1.6-1.6v-8.1l-8.8-12.3     c-0.2-0.4-0.3-0.7-0.3-1c0-0.8,0.7-1.5,1.6-1.5c0.7,0,1.1,0.5,1.4,0.9l7.7,11l7.8-11c0.3-0.4,0.7-0.9,1.4-0.9     C104.6,412.5,105.2,413.2,105.2,414.1z"></path>			</g>			<g>				<path class="st4" d="M129.9,435.4c0,0.8-0.6,1.4-1.4,1.4h-14.9c-0.8,0-1.5-0.7-1.5-1.6v-21c0-0.9,0.7-1.6,1.5-1.6h14.7     c0.8,0,1.4,0.6,1.4,1.4c0,0.8-0.6,1.4-1.4,1.4h-13.2v7.7h11.7c0.8,0,1.4,0.6,1.4,1.4s-0.6,1.4-1.4,1.4h-11.7v7.9h13.3     C129.2,434,129.9,434.6,129.9,435.4z"></path>			</g>			<g>				<path class="st4" d="M156.3,420L156.3,420c0-2-0.6-3.6-1.9-4.8c-1.6-1.6-4-2.5-6.9-2.5h-8.9c-0.8,0-1.5,0.7-1.5,1.6v21.2     c0,0.9,0.7,1.6,1.5,1.6c0.9,0,1.6-0.7,1.6-1.6v-7.9h6.5l6.6,8.6c0.4,0.6,0.9,0.8,1.4,0.8c0.8,0,1.6-0.7,1.6-1.5     c0-0.4-0.2-0.7-0.5-1.1l-5.7-7.3C154,426.1,156.3,423.6,156.3,420z M147.2,424.8h-7.1v-9.2h7.1c3.6,0,5.9,1.7,5.9,4.4v0.1     C153.2,423,150.9,424.8,147.2,424.8z"></path>			</g>			<g>				<path class="st4" d="M199.6,414.1v21.3c0,0.9-0.7,1.6-1.5,1.6c-0.9,0-1.6-0.7-1.6-1.6v-17l-7.2,10.6c-0.4,0.5-0.8,0.8-1.3,0.8     c-0.6,0-1-0.2-1.3-0.8l-7.2-10.5v17c0,0.9-0.6,1.5-1.5,1.5s-1.5-0.6-1.5-1.5v-21.3c0-0.8,0.7-1.5,1.5-1.5h0.3     c0.6,0,1,0.2,1.4,0.8L188,426l8.3-12.5c0.3-0.5,0.8-0.8,1.4-0.8h0.3C198.8,412.6,199.6,413.3,199.6,414.1z"></path>			</g>			<g>				<path class="st4" d="M219.5,412.3c-6.9,0-12.3,5.5-12.3,12.4v0.1c0,7.1,5.2,12.4,12.3,12.4c6.9,0,12.3-5.5,12.3-12.4l0,0     C231.8,417.6,226.5,412.3,219.5,412.3z M219.5,434.3c-5.2,0-9.1-4.2-9.1-9.6l0,0c0-5.4,3.9-9.5,9-9.5s9.1,4.2,9.1,9.6v0.1     C228.6,430.3,224.7,434.3,219.5,434.3z"></path>			</g>			<g>				<path class="st4" d="M247.8,412.7h-6.9c-0.8,0-1.5,0.7-1.5,1.6v21c0,0.9,0.7,1.6,1.5,1.6h6.9c7.4,0,12.8-5.1,12.8-12.1v-0.2     C260.6,417.7,255.2,412.7,247.8,412.7z M247.8,433.9h-5.4v-18.4h5.4c5.6,0,9.6,3.8,9.6,9.2v0.1     C257.4,430.2,253.5,433.9,247.8,433.9z"></path>			</g>			<g>				<path class="st4" d="M286.1,435.4c0,0.8-0.6,1.4-1.4,1.4h-14.9c-0.8,0-1.5-0.7-1.5-1.6v-21c0-0.9,0.7-1.6,1.5-1.6h14.7     c0.8,0,1.4,0.6,1.4,1.4c0,0.8-0.6,1.4-1.4,1.4h-13.2v7.7H283c0.8,0,1.4,0.6,1.4,1.4s-0.6,1.4-1.4,1.4h-11.7v7.9h13.3     C285.4,434,286.1,434.6,286.1,435.4z"></path>			</g>			<g>				<path class="st4" d="M312.5,420L312.5,420c0-2-0.6-3.6-1.9-4.8c-1.6-1.6-4-2.5-6.9-2.5h-8.9c-0.8,0-1.5,0.7-1.5,1.6v21.2     c0,0.9,0.7,1.6,1.5,1.6c0.9,0,1.6-0.7,1.6-1.6v-7.9h6.5l6.6,8.6c0.4,0.6,0.9,0.8,1.4,0.8c0.8,0,1.6-0.7,1.6-1.5     c0-0.4-0.2-0.7-0.5-1.1l-5.7-7.3C310.3,426.1,312.5,423.6,312.5,420z M296.4,415.6h7.1c3.6,0,5.9,1.7,5.9,4.4v0.1     c0,2.9-2.3,4.7-5.9,4.7h-7.1L296.4,415.6L296.4,415.6z"></path>			</g>			<g>				<path class="st4" d="M340.6,414.1v21.4c0,0.8-0.6,1.4-1.4,1.4H339c-0.7,0-1.1-0.4-1.5-0.9l-14.4-18.3v17.8     c0,0.9-0.7,1.5-1.5,1.5s-1.5-0.7-1.5-1.5v-21.3c0-0.8,0.7-1.5,1.5-1.5h0.4c0.7,0,1.2,0.4,1.5,0.9l14,17.9v-17.3     c0-0.9,0.7-1.5,1.5-1.5C339.9,412.5,340.6,413.2,340.6,414.1z"></path>			</g>			<g>				<path class="st4" d="M367.1,435.4c0,0.8-0.6,1.4-1.4,1.4h-14.9c-0.8,0-1.5-0.7-1.5-1.6v-21c0-0.9,0.7-1.6,1.5-1.6h14.7     c0.8,0,1.4,0.6,1.4,1.4c0,0.8-0.6,1.4-1.4,1.4h-13.2v7.7H364c0.8,0,1.4,0.6,1.4,1.4s-0.6,1.4-1.4,1.4h-11.7v7.9h13.3     C366.5,434,367.1,434.6,367.1,435.4z"></path>			</g>		</g>	</g>	<g>		<path class="st5" d="M223.7,480l0.2-0.1l3.3-1.3l3.4-1.4l-0.1-0.1c-0.8-0.6-1.7-1-2.7-1c-0.6,0-1.1,0.1-1.6,0.3   C224.9,477,223.8,478.4,223.7,480L223.7,480z M232.8,483.3l3.6,4.3c-2.6,2.3-5.1,3.3-8.1,3.3c-3.3,0.1-6.3-1.3-8.3-3.9l0,0   c-0.4-0.5-0.7-1-1-1.6l0,0c-0.4-0.7-0.7-1.5-0.9-2.3V483c-1.1-4.8,1.3-9.6,5.7-11.6c4.4-2,9.6-0.6,12.4,3.3l0,0   c0.1,0.1,0.2,0.2,0.2,0.3c0.1,0.1,0.1,0.2,0.2,0.2c0.1,0.2,0.2,0.3,0.2,0.4c0,0.1,0.1,0.2,0.1,0.2c0.1,0.2,0.2,0.4,0.3,0.6l0,0   l0,0l0,0l0,0l0,0l0,0l0,0l0,0v0.1l1.1,2.6l-5.6,2.3l-0.8,0.3l-6.2,2.6c0.7,0.4,1.5,0.6,2.4,0.6C229.8,485,231.1,484.7,232.8,483.3   "></path>		<path class="st5" d="M271.3,479.3v11.4h-5.6v-11.4c0-1.8-1.5-3.3-3.3-3.3c-1.8,0-3.3,1.5-3.3,3.3v11.4h-5.6v-11.4   c0-1.8-1.5-3.3-3.3-3.3s-3.3,1.5-3.3,3.3v11.4h-5.6l-0.1-20.3h5.6v0.6c3.3-1.3,7-0.6,9.5,1.7c1.7-1.6,3.8-2.5,6.1-2.5   C267.3,470.4,271.3,474.3,271.3,479.3"></path>		<path class="st6" d="M293,479.3v11.3h-5.6v-11.3c0-1.9-1.5-3.4-3.4-3.4c-1.9,0-3.4,1.5-3.4,3.4v11.3h-5.6l-0.1-32.3h5.6v12.7   c1.1-0.5,2.2-0.7,3.4-0.7C288.9,470.4,293,474.4,293,479.3"></path>		<path class="st6" d="M306.4,485c2.5,0,4.6-2.1,4.6-4.6c0-2.5-2.1-4.6-4.6-4.6c-2.5,0-4.6,2.1-4.6,4.6   C301.8,483,303.8,485,306.4,485L306.4,485z M316.5,470.3l0.1,20.3H311v-1.1c-4.3,2.1-9.4,1-12.4-2.7c-3-3.7-3-9,0-12.8   c3-3.7,8.2-4.8,12.4-2.7v-1.1L316.5,470.3z"></path>		<path class="st5" d="M337.4,501.6v-5.4c5.2,0,10-2.1,13.6-5.7l3.8,3.8C350.1,499.1,344,501.6,337.4,501.6"></path>		<path class="st5" d="M332.1,480.4c0,2.5-2.1,4.7-4.6,4.7c-2.5,0-4.7-2.1-4.7-4.6c0-2.5,2.1-4.7,4.6-4.7S332.1,477.8,332.1,480.4"></path>		<path class="st5" d="M357.8,480.3c0,2.5-2.1,4.7-4.6,4.7s-4.7-2.1-4.7-4.6c0-2.5,2.1-4.7,4.6-4.7   C355.8,475.7,357.8,477.8,357.8,480.3"></path>		<polygon class="st5" points="353.2,456.8 337.4,472.6 337.5,485.9 342.8,485.9 342.8,474.8 353.2,464.4 363.4,474.6 367.1,470.8      "></polygon>		<polygon class="st6" points="43.5,476.2 43.5,486.2 41.1,486.2 41.1,479.9 39,486.2 36.8,486.2 34.7,479.9 34.7,486.2 32.2,486.2    32.2,476.2 35.2,476.2 37.9,483.1 40.6,476.2   "></polygon>		<polygon class="st6" points="49.6,478.1 49.6,480.1 52.9,480.1 52.9,482 49.6,482 49.6,484.2 53.4,484.2 53.4,486.1 47.1,486.2    47.1,476.1 53.4,476.1 53.4,478   "></polygon>		<polygon class="st6" points="68,476.2 68,486.1 65.6,486.1 65.5,479.9 63.4,486.1 61.3,486.1 59.2,479.9 59.2,486.1 56.7,486.1    56.7,476.2 59.7,476.2 62.5,483.1 65.1,476.2   "></polygon>		<path class="st6" d="M79.1,481.8c0.3,0.5,0.6,1,0.6,1.5c0,0.9-0.3,1.5-0.9,2s-1.4,0.7-2.5,0.7h-4.7v-10h4.5c1,0,1.8,0.2,2.4,0.6   c0.6,0.5,0.9,1.1,0.9,1.9c0,0.6-0.2,1.1-0.5,1.5c-0.3,0.4-0.7,0.6-1.3,0.8C78.2,481.1,78.7,481.3,79.1,481.8 M74.1,480.1h1.6   c0.9,0,1.3-0.4,1.3-1.1s-0.4-1.1-1.3-1.1h-1.6V480.1z M77.1,483c0-0.4-0.2-0.6-0.3-0.9c-0.2-0.2-0.6-0.3-1-0.3H74v2.2h1.7   C76.7,484.1,77.1,483.7,77.1,483"></path>		<path class="st6" d="M88.1,486l-2.1-3.8h-0.6v3.8h-2.5v-10H87c0.8,0,1.4,0.2,2,0.4s1,0.6,1.3,1.1c0.2,0.5,0.4,1,0.4,1.7   c0,0.7-0.2,1.3-0.6,1.8s-1,0.9-1.7,1l2.4,4H88.1z M85.3,480.6h1.5c0.5,0,0.9-0.1,1-0.3c0.2-0.2,0.3-0.6,0.3-1s-0.1-0.7-0.3-1   c-0.2-0.2-0.6-0.3-1-0.3h-1.5V480.6z"></path>		<polygon class="st6" points="96.3,477.9 96.3,480.1 99.6,480.1 99.6,481.9 96.3,481.9 96.3,484.1 100.1,484.1 100.1,486 93.9,486    93.9,476 100.1,476 100.1,477.9   "></polygon>		<path class="st6" d="M116.7,483.5c-0.4,0.8-1,1.3-1.8,1.7s-1.7,0.6-2.8,0.6h-3.8v-10h3.8c1.1,0,2,0.2,2.8,0.6s1.3,1,1.8,1.7   c0.4,0.8,0.6,1.6,0.6,2.6C117.2,482,117.1,482.8,116.7,483.5 M114.1,483.1c0.6-0.5,0.8-1.2,0.8-2.1c0-0.9-0.2-1.6-0.8-2.1   c-0.6-0.5-1.3-0.7-2.2-0.7h-1.1v5.7h1.1C112.8,483.9,113.5,483.5,114.1,483.1"></path>		<path class="st6" d="M123,475.9v5.8c0,0.6,0.2,1.2,0.5,1.5c0.3,0.3,0.7,0.6,1.3,0.6c0.6,0,1-0.2,1.3-0.6c0.3-0.3,0.5-0.9,0.5-1.5   v-5.8h2.5v5.8c0,1-0.2,1.7-0.6,2.4s-0.9,1.1-1.5,1.4c-0.6,0.3-1.3,0.5-2.1,0.5c-0.8,0-1.5-0.2-2.1-0.5c-0.6-0.3-1.1-0.8-1.4-1.4   c-0.3-0.6-0.6-1.4-0.6-2.4v-5.8H123z"></path>		<path class="st6" d="M145.1,476.7c0.8,0.6,1.3,1.4,1.5,2.5H144c-0.2-0.4-0.4-0.6-0.8-0.9s-0.8-0.3-1.3-0.3c-0.8,0-1.3,0.2-1.8,0.8   c-0.5,0.6-0.7,1.2-0.7,2.1c0,1,0.2,1.7,0.7,2.2c0.5,0.5,1.2,0.8,2.1,0.8c0.6,0,1.1-0.2,1.5-0.5c0.4-0.3,0.7-0.8,1-1.3h-3.1v-1.7   h5.1v2.4c-0.2,0.6-0.5,1.1-0.9,1.7c-0.4,0.5-1,0.9-1.6,1.2s-1.3,0.5-2.2,0.5c-1,0-1.9-0.2-2.6-0.6c-0.8-0.4-1.3-1-1.7-1.8   c-0.4-0.8-0.6-1.7-0.6-2.6c0-1,0.2-1.9,0.6-2.6c0.4-0.8,1-1.3,1.7-1.8c0.7-0.4,1.6-0.6,2.6-0.6   C143.3,475.8,144.3,476.1,145.1,476.7"></path>		<path class="st6" d="M155.2,485.9l-2.1-3.8h-0.6v3.8h-2.5v-10h4.1c0.8,0,1.4,0.2,2,0.4s1,0.6,1.3,1.1c0.2,0.5,0.4,1,0.4,1.7   c0,0.7-0.2,1.3-0.6,1.8c-0.4,0.5-1,0.9-1.7,1l2.4,4H155.2z M152.5,480.4h1.5c0.5,0,0.9-0.1,1-0.3c0.2-0.2,0.3-0.6,0.3-1   s-0.1-0.7-0.3-1c-0.2-0.2-0.6-0.3-1-0.3h-1.5V480.4z"></path>		<path class="st6" d="M168.4,476.4c0.8,0.5,1.3,1,1.8,1.8s0.6,1.7,0.6,2.6s-0.2,1.9-0.6,2.6c-0.5,0.8-1,1.4-1.8,1.8   c-0.8,0.5-1.6,0.6-2.5,0.6s-1.8-0.2-2.5-0.6c-0.8-0.5-1.3-1-1.8-1.8s-0.7-1.7-0.7-2.6s0.2-1.8,0.6-2.6c0.5-0.8,1-1.4,1.8-1.8   c0.8-0.5,1.6-0.6,2.5-0.6C166.7,475.7,167.6,475.9,168.4,476.4 M164,478.7c-0.5,0.5-0.7,1.2-0.7,2.1c0,0.9,0.2,1.6,0.7,2.1   c0.5,0.6,1.1,0.8,1.9,0.8s1.4-0.2,1.9-0.8c0.5-0.6,0.7-1.2,0.7-2.1s-0.2-1.6-0.7-2.1c-0.5-0.6-1.1-0.8-1.9-0.8   S164.4,478.2,164,478.7"></path>		<path class="st6" d="M176.6,475.8v5.8c0,0.6,0.2,1.2,0.5,1.5c0.3,0.3,0.7,0.6,1.3,0.6s1-0.2,1.3-0.6c0.2-0.4,0.5-0.9,0.5-1.5v-5.8   h2.5v5.8c0,1-0.2,1.7-0.6,2.4s-0.9,1.1-1.5,1.4c-0.6,0.3-1.3,0.5-2.1,0.5s-1.5-0.2-2.1-0.5c-0.6-0.3-1.1-0.8-1.4-1.4   c-0.3-0.6-0.6-1.4-0.6-2.4v-5.8H176.6z"></path>		<path class="st6" d="M188.5,482.3v3.5h-2.5v-10h3.9c1.2,0,2.1,0.3,2.7,0.9c0.6,0.6,1,1.3,1,2.4c0,0.6-0.2,1.2-0.4,1.7   c-0.3,0.5-0.7,0.9-1.3,1.1c-0.6,0.3-1.2,0.4-2,0.4L188.5,482.3z M191.2,479.1c0-0.9-0.5-1.3-1.4-1.3h-1.3v2.6h1.3   C190.7,480.4,191.2,480,191.2,479.1"></path>		<polygon class="st6" points="199.2,477.8 199.2,479.8 202.6,479.8 202.6,481.6 199.2,481.6 199.2,483.9 203,483.9 203,485.8    196.9,485.8 196.8,475.8 203,475.8 203,477.8   "></polygon>	</g></g></svg>